<?xml version="1.0" standalone="no"?>
<!DOCTYPE svg PUBLIC "-//W3C//DTD SVG 20010904//EN"
 "http://www.w3.org/TR/2001/REC-SVG-20010904/DTD/svg10.dtd">
<svg version="1.0" xmlns="http://www.w3.org/2000/svg"
 width="1200.000000pt" height="1200.000000pt" viewBox="0 0 1200.000000 1200.000000"
 preserveAspectRatio="xMidYMid meet">

<g transform="translate(0.000000,1200.000000) scale(0.100000,-0.100000)"
fill="#000000" stroke="none">
<path d="M7695 11975 c-901 -132 -1728 -609 -2276 -1315 -471 -606 -717 -1300
-772 -2177 l-12 -192 -250 261 c-255 266 -746 766 -1619 1647 l-489 494 -981
-12 c-540 -6 -1050 -14 -1133 -17 l-153 -6 0 -1255 0 -1255 87 -111 c305 -389
604 -728 1367 -1547 470 -505 543 -584 691 -750 71 -80 140 -157 153 -172 l25
-27 -879 -883 c-851 -854 -1049 -1060 -1317 -1373 l-127 -147 0 -1229 0 -1228
33 -5 c128 -21 458 -27 1504 -26 l1158 0 35 38 c19 20 148 168 286 327 138
160 353 406 478 548 l227 257 699 0 700 0 0 38 c0 20 -7 237 -15 481 -8 244
-13 446 -12 448 6 5 438 -449 882 -927 288 -310 856 -908 1129 -1189 l121
-124 1255 2 c690 1 1256 3 1257 5 2 1 7 362 12 802 6 439 13 957 16 1150 l6
350 -113 120 c-62 66 -273 290 -468 499 -395 423 -920 981 -1138 1210 l-144
150 189 7 c103 4 247 14 318 23 925 114 1784 604 2329 1332 377 503 607 1050
696 1657 58 396 51 845 -21 1246 -69 390 -205 790 -364 1075 -499 892 -1412
1556 -2425 1765 -80 16 -157 30 -172 30 -15 0 -30 5 -33 10 -9 15 -629 11
-740 -5z m805 -384 c406 -70 810 -226 1135 -439 724 -474 1233 -1273 1384
-2172 63 -374 50 -807 -34 -1157 -167 -694 -428 -1170 -886 -1619 -150 -146
-274 -248 -437 -357 -509 -343 -1111 -520 -1667 -492 -88 5 -191 8 -228 6
-101 -3 -231 23 -416 84 -91 30 -195 61 -231 70 -100 23 -300 19 -300 -7 0
-14 91 -145 155 -223 31 -38 195 -216 364 -395 680 -720 1331 -1418 1735
-1860 93 -102 189 -206 214 -231 l44 -46 -11 -809 c-6 -445 -14 -826 -17 -846
l-6 -38 -952 0 -953 0 -179 183 c-247 250 -673 698 -1234 1297 -261 278 -589
626 -729 773 -141 148 -282 298 -314 333 l-59 64 -130 0 -131 0 6 -98 c11
-154 47 -1131 47 -1254 l0 -38 -527 -1 c-291 -1 -555 -4 -589 -8 l-60 -6 -126
-150 c-69 -82 -192 -224 -273 -315 -242 -270 -415 -469 -499 -572 -43 -53 -86
-100 -95 -104 -9 -3 -469 -9 -1023 -12 l-1008 -5 0 1010 0 1009 1210 1214
c665 668 1210 1216 1210 1218 0 8 -544 620 -867 974 -154 170 -525 573 -1261
1368 l-300 325 -6 120 c-6 124 -26 1523 -26 1793 l0 152 823 0 822 0 366 -367
c360 -363 1866 -1893 2171 -2207 l156 -161 172 170 c134 133 170 174 165 190
-2 11 -12 88 -21 170 -22 208 -15 611 16 810 111 731 409 1336 895 1819 245
243 477 413 762 555 302 150 643 254 953 290 52 6 109 13 125 15 17 2 145 3
285 1 204 -2 280 -7 380 -24z"/>
<path d="M8492 9955 c-295 -90 -505 -303 -612 -623 -69 -208 -81 -474 -31
-692 56 -241 206 -477 384 -599 77 -52 266 -147 341 -170 158 -49 350 -49 528
0 103 28 300 127 383 193 139 110 260 276 310 423 33 97 48 214 40 292 -5 36
-7 123 -6 193 3 145 -12 221 -64 334 -117 256 -378 471 -714 588 -127 44 -271
74 -388 81 -75 5 -100 2 -171 -20z m335 -76 c26 -6 80 -26 120 -44 184 -84
330 -231 422 -426 54 -112 72 -183 78 -306 21 -390 -265 -758 -649 -837 -187
-39 -328 -8 -502 107 -139 93 -234 194 -290 308 -69 140 -81 197 -81 374 1
197 29 308 121 465 110 189 314 331 532 370 57 11 182 5 249 -11z"/>
<path d="M1044 9363 c0 -60 -2 -216 -5 -348 -4 -259 2 -305 54 -417 27 -58
202 -241 1186 -1238 740 -750 1059 -1078 1307 -1346 183 -197 384 -420 384
-426 0 -2 -195 -200 -433 -439 -238 -238 -689 -704 -1003 -1034 -660 -695
-1183 -1235 -1311 -1352 -96 -87 -136 -149 -170 -258 -16 -53 -17 -87 -14
-285 2 -124 5 -273 5 -331 l1 -107 240 -6 c132 -3 358 -2 501 2 l262 7 363
385 c200 212 432 455 516 541 l153 156 128 31 c70 17 176 38 235 47 87 12 638
65 683 65 9 0 13 159 15 619 3 341 7 623 11 627 16 15 537 52 853 61 l230 6
205 -219 c113 -120 387 -408 610 -639 545 -566 778 -816 1251 -1339 163 -180
282 -296 366 -358 l62 -46 223 -7 c201 -7 580 6 629 21 10 3 24 30 35 67 17
56 19 94 17 377 l-2 314 -453 451 c-249 248 -868 863 -1375 1366 -667 661
-924 922 -929 943 -9 37 6 65 113 208 97 129 165 206 413 473 169 181 277 302
347 390 l31 40 39 -23 c21 -13 54 -31 73 -40 19 -9 37 -20 40 -23 14 -18 300
-144 300 -132 0 3 7 0 15 -7 8 -7 15 -9 15 -5 0 4 6 2 13 -4 8 -6 24 -13 38
-15 13 -3 25 -5 27 -7 1 -1 7 -3 12 -4 6 -1 11 -3 13 -5 1 -1 10 -3 20 -6 9
-2 25 -6 35 -8 9 -3 17 -5 17 -6 0 -1 7 -3 15 -5 8 -2 26 -7 40 -10 14 -4 35
-8 48 -11 12 -2 32 -6 45 -8 37 -8 91 -17 117 -20 14 -2 50 -7 80 -12 65 -9
445 -9 510 0 25 3 62 8 84 10 21 3 43 9 48 14 10 10 -2725 2817 -2745 2817 -5
0 -12 -13 -13 -30 -2 -16 -6 -46 -10 -65 -7 -47 -8 -362 0 -425 11 -94 16
-130 21 -160 3 -16 8 -41 10 -55 4 -28 12 -67 20 -105 3 -14 7 -35 9 -47 2
-13 7 -36 11 -53 3 -16 8 -40 10 -53 5 -25 12 -61 19 -95 3 -12 8 -38 11 -57
3 -19 8 -46 11 -60 10 -51 3 -72 -45 -144 -102 -151 -234 -311 -515 -626 -76
-85 -184 -209 -239 -275 -55 -66 -103 -124 -108 -129 -10 -11 -60 21 -142 90
-32 27 -144 141 -250 254 -455 486 -637 674 -1731 1793 l-838 857 -432 0 -431
0 -1 -107z"/>
</g>
</svg>
