<svg id="svg" version="1.1" xmlns="http://www.w3.org/2000/svg" xmlns:xlink="http://www.w3.org/1999/xlink" width="400" height="400" viewBox="0, 0, 400,400"><g id="svgg"><path id="path0" d="M0.000 200.000 L 0.000 400.000 200.000 400.000 L 400.000 400.000 400.000 200.000 L 400.000 0.000 200.000 0.000 L 0.000 0.000 0.000 200.000 M216.574 112.790 C 219.237 115.425,223.592 119.719,226.250 122.334 C 228.908 124.949,232.621 128.605,234.500 130.459 L 237.917 133.829 233.501 138.248 L 229.086 142.667 227.585 142.666 L 226.083 142.666 215.083 131.656 C 209.033 125.600,203.881 120.537,203.633 120.406 C 203.255 120.205,201.331 120.167,191.497 120.167 C 180.446 120.167,179.816 120.151,179.897 119.875 C 180.066 119.299,182.333 108.319,182.333 108.075 C 182.333 108.034,188.948 108.000,197.032 108.000 L 211.731 108.000 216.574 112.790 M212.208 132.791 C 217.594 138.176,222.000 142.639,222.000 142.708 C 222.000 142.777,211.650 142.833,199.000 142.833 C 176.622 142.833,176.000 142.825,176.000 142.521 C 176.000 142.349,176.592 139.218,177.316 135.563 C 178.040 131.907,178.869 127.679,179.159 126.167 C 179.448 124.654,179.716 123.323,179.754 123.208 C 179.808 123.044,182.230 123.000,191.119 123.000 L 202.416 123.000 212.208 132.791 M225.167 146.306 C 225.167 146.413,220.387 151.085,218.232 153.083 C 218.034 153.267,217.380 153.898,216.778 154.486 L 215.684 155.556 211.634 155.688 C 209.406 155.761,205.483 155.900,202.917 155.997 C 200.350 156.094,196.262 156.247,193.833 156.335 C 191.404 156.424,187.317 156.574,184.750 156.669 C 175.688 157.003,171.214 157.164,167.924 157.275 L 164.598 157.387 165.091 156.802 C 165.764 156.003,172.331 148.388,172.959 147.678 L 173.465 147.106 175.108 147.069 C 179.878 146.961,186.621 146.824,190.833 146.751 C 193.446 146.705,199.446 146.588,204.167 146.490 C 208.887 146.392,214.287 146.296,216.167 146.277 C 218.046 146.258,220.840 146.226,222.375 146.205 C 223.910 146.184,225.167 146.229,225.167 146.306 M234.690 155.208 C 238.481 159.081,242.746 163.435,244.167 164.884 C 245.588 166.332,246.769 167.571,246.792 167.635 C 246.815 167.699,240.814 173.770,233.456 181.126 L 220.078 194.500 212.549 194.500 C 208.408 194.500,204.984 194.442,204.940 194.372 C 204.860 194.241,205.625 193.413,210.072 188.827 C 211.453 187.402,213.479 185.302,214.574 184.160 C 215.669 183.018,217.807 180.808,219.326 179.250 C 229.251 169.063,229.817 168.433,229.827 167.579 C 229.836 166.819,229.663 166.631,223.667 160.897 C 222.612 159.889,221.123 158.464,220.358 157.731 L 218.965 156.398 223.248 152.282 C 225.604 150.019,227.591 148.167,227.664 148.167 C 227.737 148.167,230.899 151.335,234.690 155.208 M225.306 168.822 C 225.275 168.908,224.391 169.864,223.341 170.947 C 222.291 172.031,220.570 173.817,219.516 174.917 C 218.462 176.017,216.321 178.231,214.758 179.837 C 213.195 181.443,210.222 184.518,208.151 186.670 C 206.079 188.822,203.567 191.430,202.567 192.466 L 200.750 194.348 186.500 194.177 C 178.662 194.083,171.706 193.960,171.042 193.905 C 169.665 193.791,169.701 193.853,169.999 192.072 C 170.090 191.528,170.248 190.558,170.350 189.917 C 170.722 187.590,174.080 170.693,174.190 170.594 C 174.223 170.564,176.237 170.457,178.667 170.356 C 182.827 170.183,185.661 170.076,196.917 169.668 C 199.483 169.575,203.496 169.425,205.833 169.335 C 212.306 169.085,219.586 168.819,221.167 168.774 C 224.887 168.670,225.358 168.675,225.306 168.822 M158.213 202.177 C 158.938 202.378,159.908 203.171,160.259 203.850 C 160.458 204.235,160.500 205.513,160.500 211.184 L 160.500 218.052 160.085 218.596 C 159.857 218.895,159.290 219.320,158.824 219.541 L 157.978 219.944 159.054 220.473 C 160.746 221.306,160.667 220.862,160.663 229.525 C 160.658 240.212,161.290 239.500,151.808 239.500 C 145.668 239.500,145.601 239.496,145.219 239.138 L 144.833 238.775 144.833 220.773 L 144.833 202.771 145.196 202.386 L 145.558 202.000 151.571 202.001 C 155.252 202.001,157.827 202.070,158.213 202.177 M210.797 202.382 C 212.551 203.340,212.667 203.807,212.667 209.948 L 212.667 214.940 212.208 215.845 C 211.807 216.638,211.490 216.937,209.647 218.260 L 207.545 219.771 208.972 220.760 C 212.926 223.502,212.667 222.800,212.667 230.755 C 212.667 239.881,213.006 239.501,204.880 239.499 C 196.780 239.498,196.948 239.654,196.864 232.023 C 196.798 225.999,196.663 226.333,199.170 226.333 C 201.641 226.333,201.500 226.043,201.500 231.145 L 201.500 235.333 204.750 235.333 L 208.000 235.333 208.000 230.261 L 208.000 225.188 204.833 222.816 L 201.667 220.444 201.667 219.738 C 201.667 219.147,201.743 218.983,202.139 218.725 C 202.399 218.555,203.824 217.517,205.305 216.417 L 207.998 214.417 207.999 210.375 L 208.000 206.333 204.750 206.333 L 201.500 206.333 201.500 210.031 C 201.500 214.636,201.568 214.500,199.273 214.500 C 196.879 214.500,196.999 214.781,197.004 209.179 C 197.008 203.533,197.202 202.931,199.250 202.197 C 200.182 201.863,210.138 202.022,210.797 202.382 M221.988 202.439 C 222.333 202.877,222.333 202.921,222.333 220.803 L 222.333 238.729 221.971 239.114 C 221.441 239.678,218.812 239.695,218.219 239.138 L 217.833 238.775 217.833 220.773 L 217.833 202.771 218.196 202.386 C 218.778 201.766,221.488 201.804,221.988 202.439 M238.659 202.409 C 238.889 202.653,239.007 202.938,238.954 203.117 C 238.904 203.282,238.523 204.392,238.107 205.583 C 235.766 212.282,235.012 214.446,233.807 217.917 C 233.075 220.025,232.148 222.706,231.747 223.875 L 231.018 226.000 233.509 226.000 L 236.000 226.000 236.000 219.802 C 236.000 212.321,235.836 212.833,238.224 212.833 C 240.521 212.833,240.333 212.224,240.333 219.692 L 240.333 226.000 241.391 226.000 C 242.957 226.000,243.167 226.238,243.167 228.009 C 243.167 229.858,242.912 230.167,241.388 230.167 L 240.333 230.167 240.333 234.529 C 240.333 239.813,240.463 239.500,238.277 239.500 C 235.893 239.500,236.000 239.737,236.000 234.471 L 236.000 230.167 231.302 230.167 C 224.913 230.167,224.968 230.232,226.849 224.832 C 227.408 223.229,228.465 220.192,229.198 218.083 C 231.061 212.719,231.803 210.589,233.172 206.667 C 233.828 204.787,234.427 203.046,234.502 202.797 C 234.739 202.019,234.789 202.000,236.564 202.000 C 238.165 202.000,238.300 202.026,238.659 202.409 M250.614 202.362 L 251.000 202.725 251.000 209.548 L 251.000 216.370 251.591 216.260 C 256.701 215.301,259.550 215.540,260.407 217.000 C 260.923 217.877,260.943 234.749,260.430 236.079 C 260.030 237.118,258.846 238.399,257.753 238.974 L 256.917 239.415 252.108 239.471 C 247.312 239.527,247.299 239.526,246.900 239.151 L 246.500 238.775 246.500 220.773 L 246.500 202.771 246.862 202.386 C 247.392 201.822,250.021 201.805,250.614 202.362 M149.500 212.083 L 149.500 217.833 151.458 217.828 L 153.417 217.823 154.708 216.907 L 156.000 215.990 156.000 211.162 L 156.000 206.333 152.750 206.333 L 149.500 206.333 149.500 212.083 M188.448 209.029 C 188.824 209.383,188.833 209.465,188.833 212.529 L 188.833 215.667 190.448 215.667 C 192.633 215.667,192.833 215.840,192.833 217.727 C 192.833 219.662,192.642 219.833,190.471 219.833 L 188.833 219.833 188.833 227.583 L 188.833 235.333 190.448 235.333 C 192.633 235.333,192.833 235.507,192.833 237.393 C 192.833 239.455,192.762 239.502,189.596 239.493 C 184.313 239.477,184.500 239.881,184.500 228.507 L 184.500 219.833 183.471 219.833 C 181.990 219.833,181.833 219.645,181.833 217.860 C 181.833 215.999,182.090 215.667,183.529 215.667 L 184.500 215.667 184.500 212.552 C 184.500 208.638,184.484 208.667,186.643 208.667 C 187.870 208.667,188.114 208.716,188.448 209.029 M168.903 215.875 C 168.936 215.990,169.199 217.208,169.487 218.583 C 169.775 219.958,170.080 221.383,170.166 221.750 C 170.251 222.117,170.554 223.504,170.838 224.833 C 172.261 231.482,172.045 231.192,172.831 227.500 C 173.114 226.171,173.414 224.783,173.498 224.417 C 173.582 224.050,173.733 223.375,173.833 222.917 C 173.934 222.458,174.331 220.658,174.717 218.917 L 175.417 215.750 177.149 215.702 C 180.007 215.623,179.988 215.572,178.843 220.231 C 178.390 222.075,177.673 225.008,177.251 226.750 C 175.027 235.917,173.864 240.617,172.851 244.545 C 172.383 246.358,172.000 247.876,172.000 247.920 C 172.000 248.299,168.401 247.964,168.074 247.555 L 167.720 247.110 168.031 245.930 C 169.217 241.442,169.833 238.916,169.833 238.542 C 169.833 238.303,168.621 233.246,167.139 227.303 L 164.444 216.498 164.834 216.082 C 165.286 215.602,168.774 215.424,168.903 215.875 M253.208 219.958 L 251.000 220.010 251.000 227.672 L 251.000 235.333 253.258 235.333 C 255.486 235.333,255.521 235.327,255.925 234.892 L 256.333 234.451 256.333 227.142 L 256.333 219.833 255.875 219.870 C 255.623 219.890,254.423 219.929,253.208 219.958 M149.500 228.750 L 149.500 235.333 152.833 235.333 L 156.167 235.333 156.166 229.625 L 156.165 223.917 154.806 223.042 L 153.446 222.167 151.473 222.167 L 149.500 222.167 149.500 228.750 M136.434 250.401 C 136.517 250.619,136.191 252.213,135.808 253.458 C 135.657 253.947,135.578 254.000,134.997 254.000 C 134.164 254.000,134.105 253.871,134.486 252.893 C 134.660 252.448,134.968 251.652,135.170 251.125 C 135.545 250.150,136.195 249.778,136.434 250.401 M139.264 250.393 C 139.485 250.969,138.124 254.000,137.644 254.000 C 137.392 254.000,137.152 253.944,137.110 253.875 C 137.044 253.768,137.682 250.981,137.911 250.375 C 138.018 250.091,139.154 250.106,139.264 250.393 M141.680 253.708 L 141.693 257.250 142.879 253.708 L 144.066 250.167 144.699 250.167 C 145.532 250.167,145.530 250.184,144.401 253.417 C 143.888 254.883,143.048 257.306,142.533 258.800 L 141.596 261.516 140.923 261.466 C 140.076 261.404,140.095 261.591,140.254 255.042 L 140.372 250.167 141.019 250.167 L 141.667 250.167 141.680 253.708 M174.577 250.392 C 174.897 250.626,174.893 250.961,174.537 253.167 C 174.418 253.910,174.411 253.917,173.750 253.917 C 173.010 253.917,172.922 253.610,173.238 252.125 L 173.370 251.500 172.443 251.500 L 171.515 251.500 171.415 252.125 C 171.359 252.469,171.283 252.906,171.244 253.098 C 171.198 253.326,171.573 254.059,172.336 255.230 C 173.753 257.407,173.755 257.416,173.427 259.353 C 173.075 261.426,172.985 261.500,170.804 261.500 C 168.323 261.500,168.288 261.457,168.747 258.917 C 168.880 258.183,168.991 257.565,168.994 257.542 C 168.997 257.519,169.310 257.500,169.690 257.500 L 170.380 257.500 170.274 258.375 C 170.216 258.856,170.122 259.456,170.065 259.708 C 169.961 260.166,169.963 260.167,170.882 260.167 L 171.803 260.167 172.000 258.998 L 172.197 257.830 171.045 256.040 C 169.585 253.771,169.630 253.925,169.924 252.206 C 170.259 250.248,170.364 250.167,172.570 250.167 C 173.734 250.167,174.367 250.238,174.577 250.392 M183.664 250.542 C 183.662 250.748,183.546 251.554,183.406 252.333 C 183.056 254.290,182.600 256.857,182.157 259.375 L 181.783 261.500 181.142 261.500 C 180.568 261.500,180.440 261.405,180.466 261.000 C 180.479 260.800,181.032 257.507,181.179 256.750 C 181.360 255.824,182.333 250.323,182.333 250.227 C 182.333 250.194,182.633 250.167,183.000 250.167 C 183.581 250.167,183.666 250.215,183.664 250.542 M214.072 250.315 C 214.150 250.441,213.775 252.797,213.180 255.917 C 213.092 256.375,212.858 257.725,212.659 258.917 C 212.460 260.108,212.270 261.177,212.237 261.292 C 212.202 261.414,211.900 261.500,211.505 261.500 C 210.710 261.500,210.707 261.482,211.096 259.333 C 211.547 256.844,211.645 256.290,212.000 254.250 C 212.615 250.714,212.665 250.419,212.666 250.292 C 212.667 250.114,213.961 250.136,214.072 250.315 M224.406 250.316 C 224.719 250.823,224.286 251.500,223.649 251.500 C 223.115 251.500,222.994 251.563,222.935 251.875 C 222.896 252.081,222.782 252.649,222.682 253.138 C 222.435 254.343,222.432 254.333,223.010 254.333 C 223.869 254.333,223.682 255.561,222.812 255.634 C 222.238 255.682,222.204 255.720,222.118 256.384 C 221.998 257.325,221.343 261.031,221.251 261.292 C 221.169 261.522,220.070 261.581,219.934 261.362 C 219.863 261.246,220.431 257.638,220.755 256.147 C 220.831 255.799,220.779 255.691,220.497 255.618 C 219.963 255.478,220.089 254.467,220.657 254.335 C 221.101 254.231,221.152 254.090,221.498 252.023 C 221.766 250.425,222.019 250.167,223.323 250.167 C 223.868 250.167,224.355 250.234,224.406 250.316 M275.922 250.343 C 275.982 250.439,275.867 250.946,275.666 251.468 C 275.465 251.990,275.172 252.754,275.014 253.167 C 274.805 253.713,274.623 253.932,274.344 253.972 C 273.664 254.072,273.631 253.800,274.096 251.942 L 274.541 250.167 275.177 250.167 C 275.527 250.167,275.863 250.246,275.922 250.343 M278.740 250.318 C 279.033 250.792,277.577 253.917,277.038 253.969 C 276.378 254.033,276.378 254.044,276.941 251.875 L 277.384 250.167 278.015 250.167 C 278.363 250.167,278.689 250.235,278.740 250.318 M196.043 252.167 C 195.942 253.199,195.852 253.333,195.257 253.333 C 194.551 253.333,194.464 253.200,194.602 252.335 C 194.740 251.472,196.126 251.310,196.043 252.167 M255.543 252.167 C 255.442 253.199,255.352 253.333,254.757 253.333 C 254.051 253.333,253.964 253.200,254.102 252.335 C 254.240 251.472,255.626 251.310,255.543 252.167 M153.448 253.240 C 153.348 254.311,153.349 254.313,153.799 254.365 C 154.604 254.457,154.460 255.566,153.634 255.635 C 153.036 255.684,153.014 255.709,152.910 256.468 C 152.851 256.898,152.741 257.512,152.665 257.833 C 152.253 259.574,152.272 260.167,152.740 260.167 C 153.238 260.167,153.417 260.479,153.265 261.084 C 153.142 261.572,151.668 261.698,151.082 261.270 C 150.747 261.025,150.995 258.432,151.581 256.042 C 151.653 255.746,151.602 255.667,151.337 255.667 C 150.740 255.667,150.854 254.372,151.457 254.303 C 151.866 254.256,151.926 254.165,152.029 253.442 C 152.199 252.244,152.254 252.167,152.936 252.167 L 153.548 252.167 153.448 253.240 M192.029 253.292 C 191.976 254.308,191.985 254.333,192.394 254.333 C 192.923 254.333,193.054 254.543,192.916 255.171 C 192.821 255.600,192.732 255.667,192.249 255.667 C 191.632 255.667,191.689 255.515,191.152 258.583 C 191.055 259.133,190.951 259.715,190.921 259.875 C 190.878 260.098,190.977 260.167,191.339 260.167 C 191.922 260.167,192.057 260.362,191.916 261.004 C 191.810 261.486,191.779 261.500,190.824 261.500 C 189.296 261.500,189.225 261.302,189.748 258.487 C 190.233 255.875,190.246 255.667,189.927 255.667 C 189.574 255.667,189.461 255.390,189.584 254.829 C 189.667 254.454,189.787 254.333,190.078 254.333 C 190.419 254.333,190.485 254.211,190.668 253.241 L 190.874 252.149 191.479 252.199 L 192.083 252.250 192.029 253.292 M251.529 253.292 C 251.476 254.308,251.485 254.333,251.894 254.333 C 252.423 254.333,252.554 254.543,252.416 255.171 C 252.321 255.600,252.232 255.667,251.749 255.667 C 251.132 255.667,251.189 255.515,250.652 258.583 C 250.555 259.133,250.451 259.715,250.421 259.875 C 250.378 260.098,250.477 260.167,250.839 260.167 C 251.422 260.167,251.557 260.362,251.416 261.004 C 251.310 261.486,251.279 261.500,250.324 261.500 C 248.796 261.500,248.725 261.302,249.248 258.487 C 249.733 255.875,249.746 255.667,249.427 255.667 C 249.074 255.667,248.961 255.390,249.084 254.829 C 249.167 254.454,249.287 254.333,249.578 254.333 C 249.919 254.333,249.985 254.211,250.168 253.241 L 250.374 252.149 250.979 252.199 L 251.583 252.250 251.529 253.292 M149.756 254.613 C 150.063 254.921,150.068 254.855,149.520 258.000 C 149.021 260.864,148.985 260.992,148.608 261.256 C 148.099 261.612,145.289 261.598,144.929 261.238 C 144.609 260.919,144.608 260.775,144.920 259.042 C 145.056 258.285,145.276 257.048,145.410 256.292 C 145.735 254.452,145.888 254.333,147.923 254.333 C 149.155 254.333,149.534 254.391,149.756 254.613 M159.176 254.667 C 159.327 254.897,159.258 256.175,159.057 256.884 C 158.846 257.627,157.746 257.172,157.783 256.358 C 157.814 255.685,157.790 255.639,157.450 255.730 C 157.248 255.785,156.998 255.830,156.893 255.831 C 156.663 255.834,156.563 256.211,156.162 258.583 C 155.631 261.725,155.711 261.525,155.019 261.467 C 154.418 261.417,154.417 261.415,154.450 260.667 C 154.483 259.939,155.012 256.711,155.355 255.143 L 155.525 254.369 157.268 254.393 C 158.615 254.411,159.049 254.474,159.176 254.667 M164.405 254.595 C 164.725 254.915,164.728 255.095,164.436 256.627 C 164.120 258.279,164.058 258.333,162.480 258.333 C 161.341 258.333,161.166 258.372,161.165 258.625 C 161.164 258.785,161.117 259.198,161.060 259.542 L 160.956 260.167 161.728 260.167 C 162.499 260.167,162.500 260.166,162.500 259.583 C 162.500 259.015,162.517 259.000,163.157 259.000 C 163.980 259.000,164.055 259.125,163.819 260.116 C 163.535 261.314,163.230 261.500,161.554 261.500 C 159.369 261.500,159.150 261.100,159.822 258.333 C 159.900 258.012,160.061 257.152,160.179 256.421 C 160.485 254.523,160.709 254.333,162.647 254.333 C 163.785 254.333,164.206 254.396,164.405 254.595 M179.754 254.611 C 180.077 254.934,180.035 255.451,179.417 258.800 C 178.924 261.468,178.893 261.500,176.743 261.500 C 174.425 261.500,174.490 261.631,175.087 258.181 C 175.641 254.979,175.625 255.042,176.004 254.662 C 176.456 254.211,179.314 254.171,179.754 254.611 M185.618 255.125 C 185.568 255.560,185.367 256.844,185.172 257.978 C 184.767 260.329,184.741 260.212,185.627 260.070 C 186.391 259.948,186.312 260.144,186.829 257.083 C 187.303 254.275,187.280 254.333,187.925 254.333 C 188.649 254.333,188.708 254.463,188.512 255.617 C 188.070 258.221,187.675 260.468,187.577 260.936 L 187.467 261.455 185.609 261.435 C 183.101 261.408,183.009 261.257,183.662 258.250 C 183.855 257.359,184.123 255.912,184.255 255.042 C 184.361 254.343,184.372 254.333,185.036 254.333 L 185.709 254.333 185.618 255.125 M195.542 254.917 C 195.503 255.386,195.331 256.419,194.999 258.167 C 194.921 258.579,194.762 259.498,194.645 260.208 L 194.434 261.500 193.810 261.500 C 193.008 261.500,193.000 261.480,193.265 260.000 C 193.388 259.313,193.646 257.817,193.838 256.676 C 194.253 254.210,194.208 254.302,194.974 254.366 C 195.540 254.413,195.580 254.453,195.542 254.917 M201.087 254.611 C 201.410 254.934,201.369 255.451,200.750 258.800 C 200.259 261.464,200.222 261.501,198.107 261.497 C 195.743 261.493,195.700 261.271,196.929 255.371 C 197.141 254.354,200.260 253.784,201.087 254.611 M206.933 254.752 C 207.122 255.040,207.139 255.294,207.012 255.934 C 206.923 256.383,206.729 257.425,206.580 258.250 C 205.946 261.774,206.044 261.500,205.415 261.500 C 204.557 261.500,204.547 261.345,205.183 258.000 C 205.592 255.852,205.589 255.604,205.151 255.721 C 204.931 255.780,204.597 255.830,204.409 255.831 C 204.098 255.833,204.025 256.085,203.578 258.667 L 203.089 261.500 202.471 261.500 C 201.682 261.500,201.604 261.354,201.823 260.289 C 202.013 259.365,202.572 256.213,202.749 255.067 L 202.854 254.385 204.773 254.385 C 206.567 254.385,206.708 254.409,206.933 254.752 M219.005 254.669 C 219.213 254.998,219.216 254.957,218.823 257.250 C 218.635 258.350,218.401 259.756,218.304 260.375 L 218.126 261.500 217.490 261.500 C 216.616 261.500,216.622 261.557,217.172 258.498 C 217.735 255.366,217.767 255.663,216.885 255.781 C 216.087 255.888,216.136 255.775,215.662 258.583 C 215.140 261.671,215.205 261.500,214.557 261.500 C 214.201 261.500,213.953 261.405,213.892 261.245 C 213.804 261.016,214.417 257.123,214.853 255.149 L 215.022 254.380 216.935 254.401 C 218.430 254.417,218.882 254.475,219.005 254.669 M228.422 254.613 C 228.745 254.936,228.715 255.305,228.080 258.750 C 227.577 261.481,227.558 261.500,225.410 261.500 C 223.088 261.500,223.132 261.590,223.755 258.107 C 224.319 254.951,224.296 255.037,224.671 254.662 C 225.124 254.209,227.981 254.172,228.422 254.613 M233.792 254.546 C 234.013 254.718,234.048 255.959,233.851 256.667 C 233.621 257.494,232.596 257.256,232.531 256.361 C 232.491 255.795,232.425 255.660,232.226 255.736 C 232.087 255.790,231.843 255.833,231.685 255.833 C 231.421 255.833,230.485 260.067,230.497 261.208 C 230.500 261.533,229.276 261.646,229.086 261.338 C 228.999 261.197,229.235 259.672,229.822 256.583 C 229.909 256.125,230.028 255.440,230.085 255.060 L 230.190 254.371 231.887 254.378 C 232.820 254.381,233.677 254.457,233.792 254.546 M239.083 254.522 C 239.175 254.579,239.763 254.551,240.389 254.459 C 242.561 254.141,242.607 254.268,241.836 258.417 C 241.563 259.883,241.338 261.177,241.337 261.292 C 241.335 261.423,241.087 261.500,240.667 261.500 C 240.061 261.500,239.922 261.396,239.973 260.979 C 240.004 260.729,240.335 258.799,240.570 257.500 C 240.712 256.721,240.829 256.027,240.830 255.958 C 240.836 255.722,239.493 255.824,239.400 256.067 C 239.351 256.195,239.106 257.451,238.856 258.858 L 238.402 261.417 237.847 261.470 C 237.541 261.500,237.223 261.456,237.139 261.373 C 237.013 261.246,237.639 256.950,237.922 255.999 C 237.982 255.796,237.855 255.759,237.261 255.806 C 236.414 255.874,236.494 255.669,235.825 259.458 L 235.465 261.500 234.816 261.500 C 234.227 261.500,234.167 261.459,234.167 261.065 C 234.167 260.627,234.862 256.579,235.182 255.152 L 235.354 254.386 237.135 254.402 C 238.115 254.410,238.992 254.464,239.083 254.522 M247.910 254.716 C 248.110 255.021,248.129 255.282,248.004 256.008 C 247.918 256.508,247.697 257.808,247.511 258.897 C 247.326 259.986,247.135 261.005,247.086 261.160 C 247.009 261.401,246.732 261.444,245.159 261.453 C 242.977 261.467,242.751 261.348,242.917 260.269 C 243.385 257.208,243.541 257.000,245.356 257.000 C 246.455 257.000,246.500 256.984,246.500 256.597 C 246.500 256.375,246.546 256.075,246.601 255.930 C 246.684 255.714,246.568 255.667,245.955 255.667 C 245.259 255.667,245.202 255.700,245.108 256.167 C 244.997 256.721,243.924 256.930,243.734 256.434 C 243.581 256.037,243.991 254.858,244.375 254.589 C 245.019 254.139,247.592 254.231,247.910 254.716 M255.056 254.458 C 255.127 254.575,255.037 255.231,254.687 257.125 C 254.607 257.560,254.406 258.723,254.240 259.708 L 253.940 261.500 253.313 261.500 C 252.507 261.500,252.500 261.480,252.765 260.000 C 252.888 259.313,253.146 257.817,253.338 256.676 C 253.530 255.535,253.724 254.542,253.770 254.468 C 253.875 254.298,254.954 254.290,255.056 254.458 M260.845 254.523 C 260.898 254.606,260.872 255.028,260.788 255.462 C 260.703 255.895,260.322 258.012,259.941 260.167 L 259.248 264.083 258.645 264.134 C 257.890 264.197,257.836 264.054,258.077 262.625 L 258.266 261.500 257.376 261.500 C 256.057 261.500,255.590 260.994,255.709 259.694 C 255.980 256.728,256.602 254.803,257.383 254.514 C 257.869 254.334,260.731 254.341,260.845 254.523 M263.567 254.473 C 263.614 254.550,263.437 255.844,263.174 257.348 C 262.625 260.482,262.591 260.223,263.535 260.082 L 264.268 259.972 264.481 258.528 C 264.598 257.733,264.756 256.821,264.832 256.500 C 264.908 256.179,265.018 255.560,265.078 255.125 L 265.187 254.333 265.844 254.333 C 266.646 254.333,266.660 254.452,266.167 257.117 C 265.747 259.383,265.520 260.657,265.459 261.083 C 265.416 261.392,265.277 261.418,263.547 261.438 C 261.164 261.466,261.008 261.352,261.302 259.787 C 261.409 259.217,261.654 257.850,261.845 256.750 C 262.036 255.650,262.222 254.656,262.258 254.542 C 262.330 254.310,263.430 254.253,263.567 254.473 M271.923 254.614 C 272.212 254.902,272.211 254.948,271.856 257.033 C 271.653 258.221,271.494 258.333,270.015 258.333 L 268.738 258.333 268.569 259.258 L 268.400 260.182 269.158 260.133 C 269.880 260.086,269.919 260.057,269.969 259.542 C 270.018 259.033,270.060 259.000,270.667 259.000 C 271.473 259.000,271.514 259.069,271.307 260.089 C 271.060 261.310,270.752 261.500,269.013 261.500 C 266.702 261.500,266.745 261.623,267.517 257.167 C 267.988 254.444,268.091 254.333,270.164 254.333 C 271.328 254.333,271.703 254.393,271.923 254.614 M146.929 255.875 C 146.895 255.990,146.776 256.646,146.665 257.333 C 146.553 258.021,146.395 258.846,146.315 259.167 C 146.068 260.153,146.092 260.190,146.951 260.134 L 147.736 260.083 148.008 258.417 C 148.157 257.500,148.335 256.506,148.403 256.208 L 148.526 255.667 147.758 255.667 C 147.287 255.667,146.966 255.747,146.929 255.875 M161.664 255.958 C 161.663 256.119,161.617 256.419,161.562 256.625 C 161.468 256.973,161.515 257.000,162.210 257.000 C 162.915 257.000,162.964 256.970,163.063 256.479 C 163.223 255.677,163.215 255.667,162.417 255.667 C 161.814 255.667,161.666 255.724,161.664 255.958 M176.842 256.625 C 176.742 257.152,176.581 258.033,176.485 258.583 C 176.389 259.133,176.284 259.718,176.252 259.884 C 176.201 260.144,176.297 260.177,176.970 260.134 L 177.746 260.083 178.012 258.500 C 178.159 257.629,178.332 256.635,178.397 256.292 L 178.515 255.667 177.769 255.667 L 177.024 255.667 176.842 256.625 M198.177 256.708 C 197.423 260.596,197.408 260.192,198.306 260.133 L 199.068 260.083 199.362 258.417 C 199.523 257.500,199.699 256.506,199.752 256.208 L 199.848 255.667 199.114 255.667 L 198.379 255.667 198.177 256.708 M225.519 256.542 C 225.424 257.023,225.264 257.904,225.162 258.500 C 225.061 259.096,224.952 259.718,224.919 259.884 C 224.868 260.144,224.964 260.177,225.638 260.134 C 226.407 260.084,226.418 260.075,226.519 259.417 C 226.707 258.184,227.016 256.420,227.110 256.042 C 227.196 255.694,227.147 255.667,226.447 255.667 L 225.690 255.667 225.519 256.542 M257.847 255.975 C 257.663 256.318,257.351 257.954,257.215 259.292 L 257.125 260.167 257.810 260.167 C 258.385 260.167,258.506 260.107,258.571 259.792 C 259.108 257.172,259.263 255.842,259.041 255.757 C 258.564 255.574,258.007 255.675,257.847 255.975 M269.104 256.188 C 268.944 256.989,268.953 257.000,269.729 257.000 C 270.458 257.000,270.667 256.736,270.667 255.813 C 270.667 255.331,269.205 255.681,269.104 256.188 M244.597 258.708 C 244.556 258.915,244.479 259.337,244.427 259.647 L 244.333 260.211 245.020 260.118 C 245.873 260.004,245.956 259.921,246.096 259.042 L 246.209 258.333 245.441 258.333 C 244.778 258.333,244.663 258.385,244.597 258.708 " stroke="none" fill="#040404" fill-rule="evenodd"></path><path id="path1" d="M209.250 146.521 C 206.775 146.578,201.862 146.671,198.333 146.728 C 186.508 146.919,181.434 147.011,178.833 147.082 C 177.412 147.121,175.636 147.156,174.885 147.160 L 173.520 147.167 171.385 149.632 C 170.211 150.988,168.901 152.507,168.474 153.007 C 168.047 153.507,167.059 154.666,166.277 155.581 C 165.496 156.496,164.870 157.259,164.887 157.276 C 164.918 157.307,170.025 157.139,178.208 156.837 C 191.938 156.331,195.267 156.210,205.804 155.832 C 208.492 155.735,211.808 155.595,213.173 155.521 L 215.655 155.386 217.369 153.781 C 218.312 152.898,220.433 150.858,222.083 149.248 L 225.083 146.321 219.417 146.369 C 216.300 146.395,211.725 146.464,209.250 146.521 M224.333 168.763 C 224.104 168.789,221.479 168.893,218.500 168.994 C 215.521 169.096,211.358 169.251,209.250 169.340 C 207.142 169.429,203.317 169.577,200.750 169.669 C 198.183 169.761,194.096 169.910,191.667 169.999 C 189.237 170.089,185.075 170.236,182.417 170.327 C 179.758 170.418,176.832 170.538,175.915 170.593 L 174.246 170.693 173.858 172.722 C 173.645 173.837,173.403 175.012,173.321 175.333 C 172.474 178.620,169.810 193.532,170.029 193.752 C 170.075 193.798,176.144 193.907,183.515 193.995 C 190.886 194.083,197.743 194.201,198.753 194.258 L 200.589 194.361 201.823 193.056 C 203.059 191.748,205.751 188.956,209.990 184.583 C 211.234 183.300,214.201 180.228,216.584 177.756 C 218.967 175.284,221.854 172.297,223.000 171.118 C 225.137 168.919,225.357 168.648,224.972 168.692 C 224.850 168.705,224.563 168.738,224.333 168.763 M145.276 202.471 C 144.821 202.974,144.855 238.651,145.311 239.063 C 145.594 239.319,146.219 239.340,152.186 239.297 L 158.750 239.250 159.295 238.861 C 160.584 237.942,160.578 237.981,160.628 229.667 C 160.681 220.915,160.775 221.422,158.926 220.517 L 157.769 219.951 158.593 219.555 C 159.046 219.336,159.642 218.933,159.917 218.659 L 160.417 218.160 160.417 211.193 L 160.417 204.226 159.947 203.516 C 159.069 202.189,158.982 202.175,151.817 202.170 C 145.956 202.167,145.534 202.186,145.276 202.471 M198.901 202.420 C 197.250 203.144,197.002 204.049,197.001 209.338 C 197.000 214.652,196.857 214.333,199.234 214.333 C 201.642 214.333,201.500 214.609,201.500 209.942 L 201.500 206.160 204.792 206.205 L 208.083 206.250 208.083 210.333 L 208.083 214.417 205.000 216.715 L 201.917 219.014 201.867 219.732 L 201.817 220.450 204.992 222.827 L 208.167 225.204 208.167 230.269 L 208.167 235.333 204.833 235.333 L 201.500 235.333 201.500 231.192 C 201.500 226.173,201.659 226.500,199.221 226.500 C 196.798 226.500,196.971 226.047,197.033 232.218 L 197.083 237.305 197.583 238.010 C 198.524 239.338,198.501 239.333,204.839 239.333 L 210.433 239.333 211.118 238.889 C 211.495 238.645,211.978 238.139,212.193 237.764 L 212.583 237.083 212.583 230.750 C 212.583 222.932,212.776 223.520,209.462 221.221 C 208.479 220.538,207.633 219.914,207.583 219.833 C 207.534 219.753,208.263 219.146,209.205 218.485 C 212.682 216.045,212.492 216.548,212.496 209.785 C 212.502 201.829,212.839 202.159,204.714 202.180 C 200.642 202.191,199.297 202.246,198.901 202.420 M218.276 202.471 C 217.918 202.867,217.844 238.777,218.200 239.133 C 218.551 239.484,221.556 239.399,221.891 239.029 C 222.340 238.532,222.312 202.850,221.862 202.442 C 221.398 202.023,218.662 202.045,218.276 202.471 M234.747 202.375 C 234.586 202.818,232.430 209.020,231.749 211.000 C 231.041 213.059,229.731 216.820,227.266 223.875 C 225.064 230.178,224.933 229.979,231.344 230.039 L 236.083 230.083 236.128 234.486 C 236.181 239.701,236.026 239.333,238.161 239.333 C 240.482 239.333,240.333 239.673,240.333 234.362 L 240.333 230.000 241.439 230.000 C 242.931 230.000,243.167 229.738,243.167 228.080 C 243.167 226.361,242.861 226.000,241.405 226.000 L 240.333 226.000 240.333 219.776 C 240.333 212.402,240.520 213.000,238.221 213.000 C 235.993 213.000,236.167 212.426,236.167 219.805 L 236.167 226.000 233.583 226.000 C 232.162 226.000,231.000 225.939,231.000 225.864 C 231.000 225.736,231.404 224.561,234.446 215.833 C 235.133 213.862,235.982 211.425,236.333 210.417 C 236.684 209.408,237.390 207.386,237.902 205.923 C 238.938 202.965,238.961 202.834,238.529 202.442 C 238.139 202.090,234.872 202.032,234.747 202.375 M246.942 202.471 C 246.484 202.978,246.522 238.651,246.982 239.067 C 247.533 239.565,256.812 239.395,257.799 238.868 C 258.712 238.380,259.714 237.379,260.201 236.465 L 260.583 235.750 260.583 226.554 C 260.583 216.216,260.663 216.877,259.316 216.083 C 258.672 215.704,256.122 215.650,254.250 215.975 C 253.700 216.070,252.744 216.199,252.125 216.260 L 251.000 216.372 251.000 209.545 C 251.000 201.458,251.211 202.167,248.804 202.167 C 247.480 202.167,247.173 202.217,246.942 202.471 M156.000 211.166 L 156.000 216.164 154.612 217.088 L 153.225 218.011 151.321 217.964 L 149.417 217.917 149.373 212.251 C 149.349 209.135,149.365 206.491,149.409 206.376 C 149.470 206.218,150.285 206.167,152.745 206.167 L 156.000 206.167 156.000 211.166 M184.759 209.204 C 184.547 209.507,184.500 210.141,184.500 212.704 L 184.500 215.833 183.442 215.833 C 181.999 215.833,181.833 216.034,181.833 217.776 C 181.833 219.494,182.116 219.833,183.552 219.833 L 184.500 219.833 184.507 228.042 C 184.518 239.664,184.328 239.213,189.239 239.302 C 192.766 239.366,192.667 239.420,192.667 237.431 C 192.667 235.580,192.575 235.500,190.445 235.500 L 188.833 235.500 188.833 227.667 L 188.833 219.833 190.474 219.833 C 192.591 219.833,192.667 219.763,192.667 217.804 C 192.667 215.907,192.583 215.833,190.445 215.833 L 188.833 215.833 188.833 212.609 C 188.833 208.653,188.939 208.833,186.621 208.833 C 185.154 208.833,184.997 208.865,184.759 209.204 M164.819 216.214 C 164.570 216.562,164.714 217.223,167.285 227.500 L 170.016 238.417 169.762 239.500 C 169.622 240.096,169.131 242.040,168.670 243.820 C 167.597 247.963,167.550 247.833,170.132 247.833 L 171.924 247.833 173.063 243.375 C 174.162 239.078,174.919 236.021,176.334 230.167 C 176.699 228.654,177.591 224.984,178.317 222.010 C 179.928 215.406,180.000 215.846,177.298 215.839 L 175.513 215.833 175.353 216.458 C 175.200 217.051,174.257 221.338,172.904 227.583 C 172.566 229.142,172.238 230.514,172.175 230.634 C 172.070 230.833,171.607 228.844,169.817 220.500 C 169.453 218.804,169.076 217.060,168.978 216.625 L 168.800 215.833 166.942 215.839 C 165.216 215.843,165.064 215.870,164.819 216.214 M256.465 227.163 L 256.417 234.493 255.955 234.955 C 255.503 235.407,255.445 235.418,253.246 235.475 L 251.000 235.533 251.000 227.776 L 251.000 220.020 251.625 219.955 C 251.969 219.919,253.209 219.877,254.382 219.861 L 256.513 219.833 256.465 227.163 M154.752 222.942 L 156.167 223.883 156.167 229.608 L 156.167 235.333 152.750 235.333 L 149.333 235.333 149.333 228.778 C 149.333 225.172,149.383 222.172,149.444 222.111 C 149.506 222.050,150.406 222.000,151.446 222.000 L 153.337 222.000 154.752 222.942 M135.587 250.328 C 135.404 250.623,134.335 253.580,134.334 253.792 C 134.334 253.922,134.570 254.000,134.965 254.000 L 135.596 254.000 136.035 252.213 C 136.276 251.230,136.438 250.368,136.394 250.296 C 136.280 250.113,135.706 250.135,135.587 250.328 M137.900 250.625 C 137.842 250.877,137.650 251.639,137.473 252.318 C 137.116 253.688,137.162 254.049,137.684 253.970 C 138.051 253.914,139.442 250.644,139.239 250.315 C 139.000 249.929,138.008 250.159,137.900 250.625 M140.373 255.781 L 140.417 261.417 140.934 261.467 C 141.543 261.526,141.378 261.861,142.924 257.417 C 143.529 255.675,144.325 253.397,144.692 252.355 C 145.400 250.344,145.386 250.100,144.572 250.195 C 144.117 250.248,144.068 250.358,142.912 253.875 C 142.258 255.869,141.664 257.557,141.593 257.625 C 141.522 257.694,141.491 256.063,141.524 254.000 L 141.583 250.250 140.956 250.198 L 140.329 250.146 140.373 255.781 M170.886 250.334 C 170.360 250.546,170.174 250.997,169.964 252.572 L 169.777 253.969 170.946 255.776 C 171.588 256.770,172.156 257.658,172.208 257.750 C 172.260 257.842,172.215 258.404,172.109 259.000 L 171.915 260.083 170.941 260.134 L 169.966 260.184 170.096 259.300 C 170.339 257.651,170.322 257.583,169.674 257.583 C 169.048 257.583,169.071 257.528,168.597 260.202 C 168.413 261.239,168.832 261.500,170.678 261.500 C 172.896 261.500,172.996 261.411,173.401 259.095 C 173.694 257.417,173.773 257.677,172.211 255.207 L 171.129 253.498 171.273 252.541 L 171.417 251.583 172.388 251.533 L 173.359 251.483 173.244 252.450 C 173.180 252.981,173.118 253.492,173.106 253.583 C 173.093 253.675,173.354 253.773,173.685 253.800 L 174.287 253.851 174.483 252.800 C 174.591 252.223,174.719 251.549,174.767 251.303 C 174.960 250.319,172.467 249.697,170.886 250.334 M182.421 250.364 C 182.378 250.485,182.083 252.083,181.764 253.917 C 181.445 255.750,181.028 258.136,180.838 259.218 C 180.456 261.392,180.472 261.500,181.173 261.500 C 181.754 261.500,181.600 262.062,182.653 256.083 C 183.737 249.930,183.715 250.263,183.041 250.198 C 182.703 250.165,182.469 250.228,182.421 250.364 M212.763 250.375 C 212.731 250.490,212.464 251.971,212.172 253.667 C 211.879 255.362,211.459 257.752,211.238 258.977 C 211.017 260.202,210.878 261.270,210.928 261.352 C 211.039 261.531,212.167 261.552,212.165 261.375 C 212.164 261.306,212.583 258.865,213.096 255.951 C 213.610 253.036,213.988 250.542,213.937 250.409 C 213.822 250.111,212.847 250.083,212.763 250.375 M222.386 250.331 C 221.897 250.533,221.743 250.872,221.517 252.250 C 221.175 254.329,221.174 254.333,220.756 254.333 C 220.240 254.333,220.036 255.330,220.526 255.458 C 220.923 255.562,220.916 255.729,220.400 258.598 C 220.162 259.922,220.009 261.117,220.061 261.253 C 220.136 261.448,221.162 261.638,221.168 261.458 C 221.169 261.435,221.393 260.142,221.667 258.583 C 221.940 257.025,222.165 255.694,222.165 255.625 C 222.166 255.556,222.428 255.500,222.747 255.500 C 223.223 255.500,223.345 255.427,223.429 255.093 C 223.564 254.557,223.407 254.333,222.895 254.333 C 222.486 254.333,222.479 254.313,222.588 253.440 C 222.836 251.450,222.850 251.422,223.641 251.365 C 224.332 251.315,224.351 251.298,224.301 250.782 C 224.246 250.204,223.255 249.971,222.386 250.331 M274.584 250.375 C 274.326 251.124,273.723 253.834,273.798 253.909 C 274.327 254.438,275.833 251.875,275.833 250.445 C 275.833 250.107,274.699 250.043,274.584 250.375 M277.418 250.375 C 277.163 251.114,276.551 253.772,276.612 253.875 C 277.046 254.606,278.667 251.901,278.667 250.445 C 278.667 250.107,277.532 250.043,277.418 250.375 M194.752 252.042 C 194.502 253.114,194.549 253.247,195.192 253.301 C 195.806 253.352,196.274 252.412,195.920 251.839 C 195.705 251.492,194.846 251.640,194.752 252.042 M254.252 252.042 C 254.002 253.114,254.049 253.247,254.692 253.301 C 255.306 253.352,255.774 252.412,255.420 251.839 C 255.205 251.492,254.346 251.640,254.252 252.042 M152.257 252.542 C 152.221 252.656,152.144 253.106,152.086 253.542 C 151.993 254.229,151.929 254.333,151.591 254.333 C 151.194 254.333,151.000 254.611,151.000 255.180 C 151.000 255.389,151.116 255.500,151.333 255.500 C 151.750 255.500,151.754 255.416,151.227 258.401 L 150.788 260.893 151.162 261.197 C 151.805 261.717,153.105 261.619,153.215 261.043 C 153.330 260.440,153.245 260.333,152.644 260.333 C 152.183 260.333,152.148 260.295,152.235 259.875 C 152.287 259.623,152.443 258.742,152.581 257.917 C 153.008 255.375,152.956 255.500,153.579 255.500 C 154.031 255.500,154.150 255.423,154.237 255.076 C 154.378 254.513,154.243 254.333,153.679 254.333 C 153.218 254.333,153.213 254.323,153.348 253.625 C 153.586 252.398,153.564 252.333,152.911 252.333 C 152.587 252.333,152.293 252.427,152.257 252.542 M190.727 253.285 C 190.603 254.108,190.527 254.249,190.167 254.333 C 189.600 254.465,189.443 255.500,189.989 255.500 C 190.408 255.500,190.414 255.288,189.917 258.000 C 189.296 261.386,189.364 261.592,191.074 261.466 C 191.997 261.399,192.251 260.333,191.344 260.333 C 190.720 260.333,190.719 260.313,191.228 257.583 L 191.601 255.583 192.199 255.533 C 193.184 255.449,193.183 254.333,192.198 254.333 C 191.778 254.333,191.768 254.145,192.113 252.708 C 192.195 252.367,192.143 252.333,191.537 252.333 L 190.871 252.333 190.727 253.285 M250.227 253.285 C 250.103 254.108,250.027 254.249,249.667 254.333 C 249.100 254.465,248.943 255.500,249.489 255.500 C 249.908 255.500,249.914 255.288,249.417 258.000 C 248.796 261.386,248.864 261.592,250.574 261.466 C 251.497 261.399,251.751 260.333,250.844 260.333 C 250.220 260.333,250.219 260.313,250.728 257.583 L 251.101 255.583 251.699 255.533 C 252.684 255.449,252.683 254.333,251.698 254.333 C 251.278 254.333,251.268 254.145,251.613 252.708 C 251.695 252.367,251.643 252.333,251.037 252.333 L 250.371 252.333 250.227 253.285 M146.386 254.501 C 145.464 254.873,144.376 260.910,145.156 261.327 C 146.026 261.793,148.487 261.480,148.819 260.861 C 149.019 260.486,149.833 255.954,149.833 255.211 C 149.833 254.407,147.706 253.969,146.386 254.501 M155.577 254.542 C 155.333 255.179,154.360 261.260,154.482 261.382 C 154.561 261.461,154.841 261.501,155.105 261.471 L 155.583 261.417 156.067 258.667 C 156.577 255.759,156.617 255.673,157.441 255.669 C 157.953 255.667,157.962 255.680,157.835 256.242 C 157.680 256.929,157.734 257.000,158.410 257.000 C 158.908 257.000,158.940 256.958,159.125 256.077 C 159.432 254.614,159.062 254.240,157.582 254.517 C 157.054 254.615,156.710 254.610,156.601 254.501 C 156.365 254.265,155.672 254.292,155.577 254.542 M161.041 254.537 C 160.588 254.755,160.472 255.147,159.896 258.405 L 159.456 260.894 159.830 261.197 C 161.338 262.418,164.691 260.688,163.754 259.173 C 163.447 258.676,162.697 258.992,162.583 259.667 L 162.471 260.333 161.639 260.333 L 160.807 260.333 160.903 259.833 C 160.957 259.558,161.043 259.108,161.097 258.833 C 161.193 258.334,161.194 258.333,162.388 258.328 C 163.932 258.321,164.064 258.204,164.357 256.583 C 164.644 254.992,164.602 254.697,164.058 254.491 C 163.504 254.280,161.510 254.311,161.041 254.537 M176.374 254.506 C 175.498 254.858,174.413 260.930,175.156 261.327 C 175.809 261.677,178.101 261.541,178.572 261.125 C 179.013 260.734,180.115 255.493,179.883 254.888 C 179.684 254.370,177.346 254.115,176.374 254.506 M184.431 254.542 C 184.399 254.656,184.290 255.237,184.189 255.833 C 184.088 256.429,183.854 257.742,183.669 258.750 C 183.181 261.421,183.302 261.642,185.104 261.356 C 185.729 261.257,186.155 261.259,186.282 261.362 C 186.992 261.942,187.399 261.481,187.706 259.750 C 187.868 258.833,188.138 257.317,188.306 256.380 C 188.630 254.570,188.582 254.333,187.893 254.333 C 187.382 254.333,187.397 254.289,186.881 257.303 C 186.380 260.227,186.419 260.159,185.205 260.164 C 184.726 260.166,184.670 260.122,184.745 259.792 C 185.072 258.346,185.658 254.621,185.578 254.491 C 185.434 254.258,184.499 254.299,184.431 254.542 M194.266 254.792 C 193.820 256.968,193.164 261.086,193.235 261.270 C 193.492 261.940,194.306 261.520,194.485 260.625 C 194.968 258.221,195.507 254.759,195.430 254.559 C 195.258 254.109,194.369 254.286,194.266 254.792 M197.707 254.506 C 197.188 254.714,197.066 255.072,196.585 257.775 C 195.921 261.517,195.914 261.500,198.133 261.500 C 200.080 261.500,200.203 261.368,200.659 258.794 C 200.858 257.670,201.090 256.396,201.174 255.964 C 201.358 255.022,201.255 254.692,200.716 254.487 C 200.205 254.293,198.206 254.305,197.707 254.506 M202.923 254.708 C 202.878 254.915,202.695 255.908,202.518 256.917 C 202.340 257.925,202.105 259.255,201.996 259.873 C 201.754 261.235,201.834 261.500,202.487 261.500 C 202.918 261.500,202.998 261.427,203.082 260.958 C 203.135 260.660,203.356 259.414,203.572 258.188 C 203.995 255.784,204.060 255.673,205.049 255.669 C 205.672 255.667,205.680 255.675,205.587 256.208 C 205.535 256.506,205.309 257.755,205.086 258.984 C 204.638 261.445,204.643 261.500,205.333 261.500 C 205.961 261.500,205.899 261.671,206.488 258.321 C 207.210 254.209,207.221 254.243,205.250 254.513 C 204.646 254.595,204.187 254.587,204.092 254.491 C 203.770 254.170,203.011 254.311,202.923 254.708 M215.077 254.542 C 214.892 255.025,213.850 261.225,213.931 261.356 C 214.040 261.533,214.952 261.548,215.053 261.375 C 215.094 261.306,215.331 260.050,215.582 258.583 C 216.110 255.486,215.958 255.816,216.908 255.709 C 217.832 255.605,217.814 255.444,217.233 258.627 C 216.995 259.935,216.842 261.116,216.894 261.252 C 217.055 261.670,217.979 261.571,218.071 261.125 C 219.403 254.656,219.349 254.188,217.315 254.516 C 216.605 254.630,216.228 254.628,216.108 254.508 C 215.866 254.266,215.173 254.289,215.077 254.542 M225.053 254.501 C 224.159 254.861,223.066 260.923,223.822 261.327 C 224.477 261.678,226.769 261.541,227.232 261.125 C 227.667 260.734,228.776 255.480,228.549 254.887 C 228.352 254.373,226.012 254.115,225.053 254.501 M230.263 254.542 C 230.014 255.399,229.139 261.020,229.220 261.232 C 229.315 261.480,230.333 261.638,230.333 261.405 C 230.333 261.047,231.215 256.342,231.339 256.042 C 231.458 255.753,231.628 255.667,232.082 255.667 L 232.671 255.667 232.564 256.333 L 232.457 257.000 233.051 257.000 C 233.702 257.000,233.741 256.940,233.924 255.640 C 234.070 254.604,233.664 254.296,232.417 254.499 C 231.940 254.576,231.516 254.570,231.425 254.484 C 231.189 254.259,230.332 254.302,230.263 254.542 M235.431 254.477 C 235.220 254.819,234.179 261.246,234.313 261.380 C 234.394 261.460,234.672 261.501,234.931 261.471 C 235.461 261.410,235.369 261.702,236.001 258.057 L 236.381 255.864 237.123 255.753 C 238.121 255.603,238.103 255.509,237.606 258.234 C 237.020 261.448,237.022 261.500,237.730 261.500 L 238.294 261.500 238.587 259.875 C 238.747 258.981,238.968 257.725,239.076 257.083 L 239.272 255.917 240.061 255.772 C 241.072 255.587,241.033 255.345,240.483 258.417 C 239.944 261.432,239.951 261.542,240.697 261.469 L 241.230 261.417 241.778 258.333 C 242.433 254.640,242.421 254.897,241.958 254.603 C 241.659 254.412,241.373 254.397,240.532 254.528 C 239.858 254.634,239.317 254.635,239.023 254.533 C 238.737 254.433,238.199 254.431,237.589 254.527 C 236.936 254.629,236.556 254.622,236.440 254.507 C 236.230 254.297,235.554 254.277,235.431 254.477 M244.649 254.519 C 244.155 254.700,243.833 255.287,243.833 256.008 C 243.833 256.760,244.908 256.753,245.058 256.000 C 245.207 255.258,246.668 255.220,246.664 255.958 C 246.659 257.090,246.570 257.167,245.262 257.167 C 243.539 257.167,243.329 257.440,243.069 260.024 C 242.928 261.421,243.115 261.573,244.696 261.350 C 245.316 261.262,245.815 261.263,245.908 261.351 C 246.100 261.531,246.999 261.551,247.002 261.375 C 247.003 261.306,247.228 259.977,247.502 258.422 C 248.122 254.898,248.126 254.706,247.572 254.496 C 247.037 254.292,245.228 254.307,244.649 254.519 M253.766 254.792 C 253.320 256.968,252.664 261.086,252.735 261.270 C 252.992 261.940,253.806 261.520,253.985 260.625 C 254.468 258.221,255.007 254.759,254.930 254.559 C 254.758 254.109,253.869 254.286,253.766 254.792 M257.513 254.602 C 256.731 254.930,256.438 255.611,256.020 258.073 C 255.525 260.987,255.775 261.500,257.691 261.500 C 258.331 261.500,258.356 261.519,258.270 261.958 C 258.220 262.210,258.130 262.773,258.071 263.208 L 257.962 264.000 258.561 264.000 C 259.046 264.000,259.176 263.929,259.245 263.625 C 259.601 262.050,260.821 254.614,260.744 254.490 C 260.623 254.295,259.718 254.283,259.599 254.474 C 259.551 254.552,259.176 254.565,258.765 254.502 C 258.288 254.430,257.836 254.466,257.513 254.602 M262.007 256.375 C 261.809 257.498,261.576 258.777,261.490 259.217 C 261.089 261.265,261.342 261.613,263.033 261.341 C 263.713 261.231,264.130 261.230,264.237 261.337 C 264.436 261.536,265.333 261.555,265.333 261.360 C 265.333 261.284,265.599 259.744,265.923 257.938 C 266.560 254.395,266.558 254.333,265.818 254.333 C 265.233 254.333,265.315 254.104,264.754 257.333 C 264.234 260.325,264.381 260.017,263.425 260.125 C 262.515 260.227,262.542 260.464,263.101 257.295 C 263.582 254.564,263.563 254.333,262.856 254.333 L 262.369 254.333 262.007 256.375 M268.558 254.499 C 268.096 254.686,267.939 255.205,267.403 258.324 L 266.960 260.898 267.332 261.199 C 268.838 262.418,272.189 260.687,271.254 259.173 C 270.944 258.671,270.172 258.992,270.064 259.667 L 269.957 260.333 269.131 260.333 L 268.304 260.333 268.414 259.625 C 268.623 258.283,268.564 258.333,269.902 258.333 C 271.496 258.333,272.000 257.586,272.000 255.218 C 272.000 254.409,269.879 253.966,268.558 254.499 M148.492 255.875 C 148.488 256.081,148.319 257.150,148.116 258.250 L 147.747 260.250 146.957 260.301 C 146.014 260.361,146.042 260.518,146.509 257.779 C 146.921 255.365,146.847 255.500,147.760 255.500 C 148.419 255.500,148.499 255.541,148.492 255.875 M163.213 255.625 C 163.537 256.243,162.955 257.167,162.240 257.167 C 161.447 257.167,161.325 256.919,161.605 255.875 C 161.706 255.500,163.038 255.292,163.213 255.625 M178.528 255.583 C 178.606 255.662,177.923 259.674,177.755 260.125 C 177.629 260.463,176.167 260.400,176.167 260.057 C 176.167 259.770,176.811 256.073,176.925 255.708 C 176.987 255.508,178.346 255.402,178.528 255.583 M199.881 255.833 C 199.715 257.012,199.150 260.059,199.075 260.180 C 198.894 260.473,197.500 260.364,197.500 260.057 C 197.500 259.763,198.146 256.066,198.261 255.699 C 198.365 255.370,199.929 255.499,199.881 255.833 M227.224 255.750 C 226.954 257.452,226.465 260.089,226.399 260.194 C 226.225 260.477,224.833 260.355,224.833 260.057 C 224.833 259.763,225.479 256.066,225.595 255.699 C 225.677 255.439,227.265 255.488,227.224 255.750 M259.307 255.762 C 259.339 255.788,259.189 256.808,258.974 258.030 L 258.582 260.250 257.873 260.301 C 256.931 260.369,256.907 260.263,257.328 257.892 C 257.723 255.666,258.360 254.980,259.307 255.762 M270.664 255.958 C 270.659 256.979,270.516 257.167,269.740 257.167 C 268.880 257.167,268.846 257.120,269.037 256.208 C 269.231 255.285,270.669 255.064,270.664 255.958 M246.148 259.094 C 245.955 260.130,245.918 260.167,245.073 260.167 C 244.262 260.167,244.246 260.136,244.440 258.958 L 244.544 258.333 245.417 258.333 L 246.290 258.333 246.148 259.094 " stroke="none" fill="#ebebeb" fill-rule="evenodd"></path><path id="path2" d="M179.780 123.542 C 179.730 123.748,178.896 127.967,177.926 132.917 C 176.956 137.867,176.124 142.085,176.078 142.292 L 175.994 142.667 198.941 142.667 C 211.562 142.667,221.836 142.610,221.772 142.542 C 221.708 142.473,217.326 138.086,212.036 132.792 L 202.417 123.167 191.143 123.167 L 179.869 123.167 179.780 123.542 M223.047 146.289 C 223.485 146.324,224.160 146.323,224.547 146.288 C 224.934 146.254,224.575 146.225,223.750 146.226 C 222.925 146.226,222.609 146.255,223.047 146.289 M214.288 146.454 C 214.584 146.490,215.109 146.491,215.455 146.455 C 215.800 146.419,215.558 146.389,214.917 146.388 C 214.275 146.387,213.992 146.417,214.288 146.454 M204.292 146.623 C 204.773 146.657,205.560 146.657,206.042 146.623 C 206.523 146.589,206.129 146.562,205.167 146.562 C 204.204 146.562,203.810 146.589,204.292 146.623 M196.044 146.786 C 196.297 146.825,196.672 146.824,196.877 146.784 C 197.082 146.744,196.875 146.713,196.417 146.714 C 195.958 146.716,195.791 146.748,196.044 146.786 M185.458 146.956 C 185.940 146.990,186.727 146.990,187.208 146.956 C 187.690 146.923,187.296 146.895,186.333 146.895 C 185.371 146.895,184.977 146.923,185.458 146.956 M225.391 150.331 C 224.122 151.563,222.197 153.434,221.113 154.490 L 219.144 156.410 220.863 158.080 C 221.809 158.998,224.173 161.275,226.117 163.139 C 229.769 166.642,230.141 167.129,229.900 168.091 C 229.798 168.498,221.524 177.195,208.108 191.000 L 204.949 194.250 212.514 194.293 L 220.079 194.337 233.373 181.044 C 240.685 173.732,246.648 167.702,246.625 167.643 C 246.553 167.457,243.682 164.483,236.833 157.500 C 233.191 153.787,229.647 150.152,228.955 149.421 L 227.699 148.091 225.391 150.331 M216.092 154.991 C 215.930 155.169,215.638 155.346,215.441 155.385 C 215.092 155.453,215.092 155.455,215.429 155.477 C 215.620 155.490,215.951 155.313,216.167 155.083 C 216.382 154.854,216.519 154.667,216.472 154.667 C 216.424 154.667,216.253 154.812,216.092 154.991 M223.544 168.786 C 223.797 168.825,224.172 168.824,224.377 168.784 C 224.582 168.744,224.375 168.713,223.917 168.714 C 223.458 168.716,223.291 168.748,223.544 168.786 M214.629 169.122 C 215.021 169.157,215.621 169.157,215.963 169.121 C 216.304 169.085,215.983 169.057,215.250 169.057 C 214.517 169.058,214.237 169.087,214.629 169.122 M205.542 169.455 C 205.885 169.491,206.448 169.491,206.792 169.455 C 207.135 169.419,206.854 169.389,206.167 169.389 C 205.479 169.389,205.198 169.419,205.542 169.455 M201.795 169.621 C 202.094 169.658,202.544 169.657,202.795 169.619 C 203.045 169.581,202.800 169.551,202.250 169.552 C 201.700 169.553,201.495 169.584,201.795 169.621 M196.463 169.789 C 196.855 169.824,197.455 169.824,197.796 169.788 C 198.137 169.752,197.817 169.723,197.083 169.724 C 196.350 169.724,196.071 169.754,196.463 169.789 M192.708 169.953 C 192.960 169.991,193.373 169.991,193.625 169.953 C 193.877 169.915,193.671 169.883,193.167 169.883 C 192.662 169.883,192.456 169.915,192.708 169.953 M187.375 170.121 C 187.719 170.157,188.281 170.157,188.625 170.121 C 188.969 170.085,188.688 170.056,188.000 170.056 C 187.313 170.056,187.031 170.085,187.375 170.121 M183.628 170.287 C 183.928 170.325,184.378 170.324,184.628 170.286 C 184.878 170.248,184.633 170.217,184.083 170.218 C 183.533 170.219,183.328 170.250,183.628 170.287 M179.127 170.451 C 179.334 170.491,179.634 170.490,179.794 170.448 C 179.953 170.406,179.783 170.374,179.417 170.375 C 179.050 170.377,178.920 170.411,179.127 170.451 M174.711 170.620 C 174.964 170.658,175.339 170.657,175.544 170.617 C 175.749 170.578,175.542 170.546,175.083 170.548 C 174.625 170.549,174.457 170.581,174.711 170.620 M222.578 171.542 L 221.583 172.583 222.625 171.589 C 223.198 171.041,223.667 170.573,223.667 170.547 C 223.667 170.424,223.502 170.574,222.578 171.542 M217.828 176.458 L 216.917 177.417 217.875 176.506 C 218.402 176.005,218.833 175.573,218.833 175.547 C 218.833 175.424,218.674 175.568,217.828 176.458 M213.078 181.375 L 212.083 182.417 213.125 181.422 C 214.093 180.498,214.243 180.333,214.120 180.333 C 214.094 180.333,213.625 180.802,213.078 181.375 M208.411 186.208 L 207.417 187.250 208.458 186.255 C 209.426 185.331,209.576 185.167,209.453 185.167 C 209.427 185.167,208.959 185.635,208.411 186.208 M203.745 191.042 L 202.750 192.083 203.792 191.089 C 204.365 190.541,204.833 190.073,204.833 190.047 C 204.833 189.924,204.669 190.074,203.745 191.042 M187.708 194.123 C 188.235 194.156,189.098 194.156,189.625 194.123 C 190.152 194.090,189.721 194.063,188.667 194.063 C 187.612 194.063,187.181 194.090,187.708 194.123 M217.914 220.833 C 217.914 230.779,217.934 234.848,217.958 229.875 C 217.983 224.902,217.983 216.765,217.958 211.792 C 217.934 206.819,217.914 210.887,217.914 220.833 M212.573 209.750 C 212.573 212.225,212.596 213.261,212.624 212.052 C 212.653 210.843,212.653 208.818,212.625 207.552 C 212.596 206.286,212.573 207.275,212.573 209.750 M149.409 206.376 C 149.365 206.491,149.350 209.135,149.375 212.251 L 149.421 217.917 149.461 212.129 L 149.500 206.340 152.792 206.291 L 156.083 206.243 152.786 206.205 C 150.265 206.176,149.471 206.216,149.409 206.376 M203.134 206.291 C 204.078 206.321,205.578 206.321,206.467 206.291 C 207.356 206.261,206.583 206.237,204.750 206.237 C 202.917 206.237,202.189 206.261,203.134 206.291 M260.744 226.417 C 260.744 230.908,260.765 232.722,260.792 230.447 C 260.818 228.172,260.818 224.497,260.791 222.280 C 260.765 220.064,260.744 221.925,260.744 226.417 M252.375 219.948 C 252.535 219.990,252.798 219.990,252.958 219.948 C 253.119 219.906,252.987 219.872,252.667 219.872 C 252.346 219.872,252.215 219.906,252.375 219.948 M256.410 226.917 C 256.410 230.858,256.432 232.447,256.458 230.447 C 256.485 228.447,256.485 225.222,256.458 223.280 C 256.431 221.339,256.410 222.975,256.410 226.917 M149.409 228.750 C 149.409 232.417,149.431 233.893,149.458 232.031 C 149.485 230.168,149.485 227.168,149.458 225.364 C 149.431 223.560,149.409 225.083,149.409 228.750 M198.464 226.456 C 198.948 226.490,199.698 226.490,200.131 226.456 C 200.563 226.421,200.167 226.394,199.250 226.394 C 198.333 226.395,197.980 226.423,198.464 226.456 M145.234 239.125 L 145.552 239.500 151.734 239.460 L 157.917 239.421 151.761 239.375 C 146.199 239.334,145.572 239.301,145.261 239.040 C 144.917 238.751,144.917 238.751,145.234 239.125 M189.750 239.333 L 187.250 239.430 189.698 239.465 C 191.190 239.486,192.187 239.435,192.250 239.333 C 192.307 239.242,192.330 239.182,192.302 239.202 C 192.273 239.221,191.125 239.280,189.750 239.333 M202.292 239.458 C 203.690 239.486,205.977 239.486,207.375 239.458 C 208.773 239.430,207.629 239.407,204.833 239.407 C 202.037 239.407,200.894 239.430,202.292 239.458 M219.208 239.456 C 219.644 239.490,220.356 239.490,220.792 239.456 C 221.227 239.422,220.871 239.393,220.000 239.393 C 219.129 239.393,218.773 239.422,219.208 239.456 M237.375 239.456 C 237.810 239.490,238.523 239.490,238.958 239.456 C 239.394 239.422,239.037 239.393,238.167 239.393 C 237.296 239.393,236.940 239.422,237.375 239.456 M249.365 239.458 C 250.529 239.486,252.479 239.486,253.698 239.458 C 254.918 239.429,253.967 239.406,251.583 239.406 C 249.200 239.406,248.202 239.429,249.365 239.458 M152.542 252.282 C 152.702 252.323,152.965 252.323,153.125 252.282 C 153.285 252.240,153.154 252.205,152.833 252.205 C 152.512 252.205,152.381 252.240,152.542 252.282 M191.208 252.282 C 191.369 252.323,191.631 252.323,191.792 252.282 C 191.952 252.240,191.821 252.205,191.500 252.205 C 191.179 252.205,191.048 252.240,191.208 252.282 M250.708 252.282 C 250.869 252.323,251.131 252.323,251.292 252.282 C 251.452 252.240,251.321 252.205,251.000 252.205 C 250.679 252.205,250.548 252.240,250.708 252.282 M141.542 254.250 C 141.544 254.617,141.578 254.747,141.618 254.540 C 141.658 254.332,141.656 254.032,141.615 253.873 C 141.573 253.714,141.540 253.883,141.542 254.250 M147.377 255.620 C 147.631 255.658,148.006 255.657,148.211 255.617 C 148.416 255.578,148.208 255.546,147.750 255.548 C 147.292 255.549,147.124 255.581,147.377 255.620 M153.208 255.615 C 153.369 255.657,153.631 255.657,153.792 255.615 C 153.952 255.573,153.821 255.539,153.500 255.539 C 153.179 255.539,153.048 255.573,153.208 255.615 M161.833 255.593 C 162.453 255.728,163.302 255.751,163.228 255.632 C 163.184 255.559,162.795 255.509,162.365 255.519 C 161.935 255.530,161.696 255.563,161.833 255.593 M177.167 255.593 C 177.786 255.728,178.636 255.751,178.562 255.632 C 178.517 255.559,178.129 255.509,177.698 255.519 C 177.268 255.530,177.029 255.563,177.167 255.593 M191.605 255.632 C 191.560 255.704,191.781 255.734,192.095 255.697 C 192.409 255.660,192.667 255.601,192.667 255.565 C 192.667 255.440,191.686 255.501,191.605 255.632 M198.276 255.625 C 198.233 255.694,198.597 255.750,199.083 255.750 C 199.570 255.750,199.933 255.694,199.891 255.625 C 199.848 255.556,199.485 255.500,199.083 255.500 C 198.682 255.500,198.318 255.556,198.276 255.625 M222.460 255.618 C 222.668 255.658,222.968 255.656,223.127 255.615 C 223.286 255.573,223.117 255.540,222.750 255.542 C 222.383 255.544,222.253 255.578,222.460 255.618 M225.833 255.593 C 226.453 255.728,227.302 255.751,227.228 255.632 C 227.184 255.559,226.795 255.509,226.365 255.519 C 225.935 255.530,225.696 255.563,225.833 255.593 M245.544 255.620 C 245.797 255.658,246.172 255.657,246.377 255.617 C 246.582 255.578,246.375 255.546,245.917 255.548 C 245.458 255.549,245.291 255.581,245.544 255.620 M251.105 255.632 C 251.060 255.704,251.281 255.734,251.595 255.697 C 251.909 255.660,252.167 255.601,252.167 255.565 C 252.167 255.440,251.186 255.501,251.105 255.632 M269.544 255.620 C 269.797 255.658,270.172 255.657,270.377 255.617 C 270.582 255.578,270.375 255.546,269.917 255.548 C 269.458 255.549,269.291 255.581,269.544 255.620 M244.127 256.618 C 244.334 256.658,244.634 256.656,244.794 256.615 C 244.953 256.573,244.783 256.540,244.417 256.542 C 244.050 256.544,243.920 256.578,244.127 256.618 " stroke="none" fill="#55b893" fill-rule="evenodd"></path><path id="path3" d="M213.250 109.667 C 214.071 110.492,214.781 111.167,214.826 111.167 C 214.872 111.167,214.238 110.492,213.417 109.667 C 212.595 108.842,211.886 108.167,211.840 108.167 C 211.794 108.167,212.429 108.842,213.250 109.667 M223.250 119.500 C 224.071 120.325,224.781 121.000,224.826 121.000 C 224.872 121.000,224.238 120.325,223.417 119.500 C 222.595 118.675,221.886 118.000,221.840 118.000 C 221.794 118.000,222.429 118.675,223.250 119.500 M211.250 127.833 C 215.191 131.775,218.453 135.000,218.499 135.000 C 218.544 135.000,215.358 131.775,211.417 127.833 C 207.476 123.892,204.214 120.667,204.168 120.667 C 204.122 120.667,207.309 123.892,211.250 127.833 M179.775 123.125 C 179.733 123.194,180.647 123.230,181.807 123.207 C 185.700 123.127,186.107 123.066,182.968 123.033 C 181.255 123.015,179.818 123.056,179.775 123.125 M188.542 123.124 C 189.160 123.156,190.173 123.156,190.792 123.124 C 191.410 123.092,190.904 123.065,189.667 123.065 C 188.429 123.065,187.923 123.092,188.542 123.124 M192.628 123.121 C 192.928 123.158,193.378 123.157,193.628 123.119 C 193.878 123.081,193.633 123.051,193.083 123.052 C 192.533 123.053,192.328 123.084,192.628 123.121 M195.625 123.124 C 196.473 123.154,197.860 123.154,198.708 123.124 C 199.556 123.094,198.862 123.069,197.167 123.069 C 195.471 123.069,194.777 123.094,195.625 123.124 M232.750 128.833 C 233.571 129.658,234.281 130.333,234.326 130.333 C 234.372 130.333,233.738 129.658,232.917 128.833 C 232.095 128.008,231.386 127.333,231.340 127.333 C 231.294 127.333,231.929 128.008,232.750 128.833 M222.333 138.917 C 224.394 140.979,226.118 142.667,226.164 142.667 C 226.210 142.667,224.561 140.979,222.500 138.917 C 220.439 136.854,218.715 135.167,218.669 135.167 C 218.624 135.167,220.272 136.854,222.333 138.917 M187.458 142.792 C 193.806 142.816,204.194 142.816,210.542 142.792 C 216.890 142.767,211.696 142.748,199.000 142.748 C 186.304 142.748,181.110 142.767,187.458 142.792 M220.213 146.289 C 220.652 146.324,221.327 146.323,221.713 146.288 C 222.100 146.254,221.742 146.225,220.917 146.226 C 220.092 146.226,219.775 146.255,220.213 146.289 M208.717 146.458 C 209.616 146.488,211.041 146.488,211.884 146.457 C 212.727 146.427,211.992 146.403,210.250 146.403 C 208.508 146.403,207.818 146.428,208.717 146.458 M201.380 146.623 C 201.818 146.657,202.493 146.657,202.880 146.622 C 203.267 146.587,202.908 146.559,202.083 146.559 C 201.258 146.560,200.942 146.588,201.380 146.623 M191.708 146.790 C 192.235 146.823,193.098 146.823,193.625 146.790 C 194.152 146.757,193.721 146.730,192.667 146.730 C 191.612 146.730,191.181 146.757,191.708 146.790 M182.547 146.956 C 182.985 146.990,183.660 146.990,184.047 146.955 C 184.434 146.920,184.075 146.892,183.250 146.892 C 182.425 146.893,182.109 146.922,182.547 146.956 M223.494 147.958 L 222.583 148.917 223.542 148.006 C 224.432 147.159,224.576 147.000,224.453 147.000 C 224.427 147.000,223.995 147.431,223.494 147.958 M224.914 150.708 L 223.250 152.417 224.958 150.753 C 225.898 149.838,226.667 149.069,226.667 149.045 C 226.667 148.924,226.459 149.122,224.914 150.708 M219.667 151.583 C 218.984 152.271,218.463 152.833,218.508 152.833 C 218.554 152.833,219.150 152.271,219.833 151.583 C 220.516 150.896,221.037 150.333,220.992 150.333 C 220.946 150.333,220.350 150.896,219.667 151.583 M232.417 153.000 C 233.789 154.375,234.950 155.500,234.996 155.500 C 235.042 155.500,233.956 154.375,232.583 153.000 C 231.211 151.625,230.050 150.500,230.004 150.500 C 229.958 150.500,231.044 151.625,232.417 153.000 M220.913 154.542 L 219.417 156.083 220.958 154.587 C 222.390 153.197,222.576 153.000,222.455 153.000 C 222.430 153.000,221.736 153.694,220.913 154.542 M212.713 155.623 C 213.152 155.657,213.827 155.657,214.213 155.622 C 214.600 155.587,214.242 155.559,213.417 155.559 C 212.592 155.560,212.275 155.588,212.713 155.623 M203.625 155.955 C 204.015 155.990,204.652 155.990,205.042 155.955 C 205.431 155.920,205.112 155.892,204.333 155.892 C 203.554 155.892,203.235 155.920,203.625 155.955 M194.542 156.289 C 194.977 156.324,195.690 156.324,196.125 156.289 C 196.560 156.255,196.204 156.227,195.333 156.227 C 194.463 156.227,194.106 156.255,194.542 156.289 M219.101 156.305 C 219.054 156.381,219.443 156.850,219.966 157.347 L 220.917 158.250 220.037 157.324 C 219.554 156.814,219.210 156.346,219.273 156.282 C 219.337 156.219,219.343 156.167,219.288 156.167 C 219.232 156.167,219.148 156.229,219.101 156.305 M185.547 156.623 C 185.985 156.657,186.660 156.657,187.047 156.622 C 187.434 156.587,187.075 156.559,186.250 156.559 C 185.425 156.560,185.109 156.588,185.547 156.623 M176.375 156.956 C 176.810 156.990,177.523 156.990,177.958 156.956 C 178.394 156.922,178.037 156.893,177.167 156.893 C 176.296 156.893,175.940 156.922,176.375 156.956 M167.208 157.289 C 167.644 157.324,168.356 157.324,168.792 157.289 C 169.227 157.255,168.871 157.227,168.000 157.227 C 167.129 157.227,166.773 157.255,167.208 157.289 M239.750 160.500 C 240.755 161.508,241.615 162.333,241.661 162.333 C 241.707 162.333,240.922 161.508,239.917 160.500 C 238.911 159.492,238.052 158.667,238.006 158.667 C 237.960 158.667,238.745 159.492,239.750 160.500 M222.500 159.713 C 222.500 159.738,223.081 160.319,223.792 161.004 L 225.083 162.250 223.838 160.958 C 222.680 159.759,222.500 159.591,222.500 159.713 M227.750 164.833 C 228.479 165.567,229.113 166.167,229.159 166.167 C 229.205 166.167,228.646 165.567,227.917 164.833 C 227.188 164.100,226.554 163.500,226.508 163.500 C 226.462 163.500,227.021 164.100,227.750 164.833 M245.582 166.460 L 246.745 167.671 233.414 181.044 L 220.084 194.417 233.499 181.042 L 246.915 167.668 245.667 166.459 L 244.420 165.250 245.582 166.460 M217.208 168.956 C 217.644 168.990,218.356 168.990,218.792 168.956 C 219.227 168.922,218.871 168.893,218.000 168.893 C 217.129 168.893,216.773 168.922,217.208 168.956 M224.658 169.458 L 224.083 170.083 224.708 169.509 C 225.290 168.974,225.410 168.833,225.283 168.833 C 225.255 168.833,224.974 169.115,224.658 169.458 M227.580 170.708 L 225.750 172.583 227.625 170.753 C 229.367 169.053,229.576 168.833,229.455 168.833 C 229.431 168.833,228.587 169.677,227.580 170.708 M208.042 169.289 C 208.477 169.324,209.190 169.324,209.625 169.289 C 210.060 169.255,209.704 169.227,208.833 169.227 C 207.963 169.227,207.606 169.255,208.042 169.289 M199.292 169.622 C 199.681 169.657,200.319 169.657,200.708 169.622 C 201.098 169.587,200.779 169.558,200.000 169.558 C 199.221 169.558,198.902 169.587,199.292 169.622 M190.213 169.956 C 190.652 169.990,191.327 169.990,191.713 169.955 C 192.100 169.920,191.742 169.892,190.917 169.892 C 190.092 169.893,189.775 169.922,190.213 169.956 M181.047 170.289 C 181.485 170.324,182.160 170.323,182.547 170.288 C 182.934 170.254,182.575 170.225,181.750 170.226 C 180.925 170.226,180.609 170.255,181.047 170.289 M177.461 170.454 C 177.761 170.491,178.211 170.490,178.461 170.452 C 178.712 170.414,178.467 170.384,177.917 170.385 C 177.367 170.386,177.162 170.417,177.461 170.454 M220.661 173.625 L 219.750 174.583 220.708 173.672 C 221.599 172.826,221.743 172.667,221.619 172.667 C 221.593 172.667,221.162 173.098,220.661 173.625 M223.413 175.042 L 221.917 176.583 223.458 175.087 C 224.890 173.697,225.076 173.500,224.955 173.500 C 224.930 173.500,224.236 174.194,223.413 175.042 M216.163 178.292 L 214.583 179.917 216.208 178.337 C 217.718 176.869,217.909 176.667,217.788 176.667 C 217.764 176.667,217.032 177.398,216.163 178.292 M218.250 180.333 C 217.153 181.433,216.293 182.333,216.339 182.333 C 216.384 182.333,217.320 181.433,218.417 180.333 C 219.514 179.233,220.374 178.333,220.328 178.333 C 220.282 178.333,219.347 179.233,218.250 180.333 M210.667 183.917 C 209.984 184.604,209.463 185.167,209.508 185.167 C 209.554 185.167,210.150 184.604,210.833 183.917 C 211.516 183.229,212.037 182.667,211.992 182.667 C 211.946 182.667,211.350 183.229,210.667 183.917 M214.164 184.625 L 212.417 186.417 214.208 184.670 C 215.872 183.047,216.076 182.833,215.955 182.833 C 215.931 182.833,215.125 183.640,214.164 184.625 M206.246 188.542 L 205.083 189.750 206.292 188.588 C 207.414 187.508,207.576 187.333,207.454 187.333 C 207.428 187.333,206.885 187.877,206.246 188.542 M209.331 189.625 L 207.250 191.750 209.375 189.669 C 211.349 187.736,211.576 187.500,211.456 187.500 C 211.432 187.500,210.475 188.456,209.331 189.625 M201.662 193.292 L 200.583 194.417 201.708 193.338 C 202.753 192.336,202.910 192.167,202.787 192.167 C 202.761 192.167,202.255 192.673,201.662 193.292 M205.255 193.828 C 204.585 194.527,204.374 194.509,212.667 194.458 L 220.083 194.413 212.510 194.373 L 204.938 194.333 205.417 193.833 C 205.680 193.558,205.858 193.333,205.812 193.333 C 205.767 193.333,205.516 193.556,205.255 193.828 M171.958 193.957 C 172.531 193.989,173.469 193.989,174.042 193.957 C 174.615 193.924,174.146 193.898,173.000 193.898 C 171.854 193.898,171.385 193.924,171.958 193.957 M181.292 194.124 C 182.323 194.154,184.010 194.154,185.042 194.124 C 186.073 194.095,185.229 194.071,183.167 194.071 C 181.104 194.071,180.260 194.095,181.292 194.124 M195.382 194.290 C 196.004 194.323,196.979 194.322,197.549 194.290 C 198.118 194.257,197.608 194.231,196.417 194.231 C 195.225 194.232,194.759 194.258,195.382 194.290 M145.195 202.387 L 144.832 202.773 144.875 220.845 L 144.918 238.917 144.959 220.817 C 144.998 203.574,145.014 202.705,145.302 202.445 C 145.569 202.203,146.327 202.165,151.761 202.125 L 157.917 202.079 151.737 202.040 L 145.558 202.000 145.195 202.387 M202.219 202.125 C 203.668 202.153,205.993 202.152,207.385 202.125 C 208.778 202.097,207.592 202.074,204.750 202.074 C 201.908 202.074,200.769 202.097,202.219 202.125 M218.154 202.458 L 217.750 202.917 218.177 202.542 C 218.749 202.040,221.338 201.982,221.904 202.458 C 222.250 202.750,222.250 202.750,221.933 202.375 C 221.406 201.754,218.723 201.813,218.154 202.458 M234.775 202.125 C 234.732 202.194,235.272 202.230,235.974 202.205 C 238.213 202.125,238.470 202.057,236.635 202.028 C 235.655 202.013,234.818 202.056,234.775 202.125 M246.862 202.386 L 246.500 202.771 246.500 220.793 C 246.500 230.704,246.556 238.848,246.625 238.891 C 246.694 238.933,246.731 230.826,246.707 220.874 C 246.657 199.855,246.393 202.206,248.812 202.124 L 250.417 202.070 248.821 202.035 C 247.345 202.003,247.198 202.029,246.862 202.386 M222.167 220.867 C 222.121 230.831,222.140 238.927,222.209 238.858 C 222.278 238.788,222.316 230.636,222.292 220.741 L 222.250 202.750 222.167 220.867 M208.072 210.333 C 208.072 212.579,208.096 213.498,208.125 212.375 C 208.153 211.252,208.153 209.415,208.125 208.292 C 208.096 207.169,208.072 208.088,208.072 210.333 M185.875 208.789 C 186.310 208.824,187.023 208.824,187.458 208.789 C 187.894 208.755,187.537 208.727,186.667 208.727 C 185.796 208.727,185.440 208.755,185.875 208.789 M236.360 213.221 C 235.997 213.608,235.996 213.631,236.042 219.846 L 236.088 226.083 236.127 219.817 C 236.174 212.406,235.989 213.000,238.250 213.000 C 239.410 213.000,239.797 213.062,240.070 213.292 C 240.416 213.583,240.416 213.583,240.099 213.208 C 239.613 212.634,236.903 212.644,236.360 213.221 M198.464 214.456 C 198.948 214.490,199.698 214.490,200.131 214.456 C 200.563 214.421,200.167 214.394,199.250 214.394 C 198.333 214.395,197.980 214.423,198.464 214.456 M167.030 215.789 C 168.238 215.826,168.833 215.909,168.880 216.047 C 168.918 216.159,168.941 216.137,168.931 216.000 C 168.916 215.795,168.586 215.749,167.081 215.742 L 165.250 215.734 167.030 215.789 M175.442 215.792 C 175.399 215.860,175.938 215.896,176.640 215.871 C 178.880 215.792,179.136 215.724,177.302 215.695 C 176.321 215.679,175.485 215.723,175.442 215.792 M182.958 215.787 C 183.256 215.824,183.744 215.824,184.042 215.787 C 184.340 215.750,184.096 215.720,183.500 215.720 C 182.904 215.720,182.660 215.750,182.958 215.787 M190.411 215.791 C 192.586 215.863,192.656 215.925,192.701 217.817 L 192.735 219.250 192.791 217.852 C 192.873 215.822,192.689 215.655,190.429 215.702 L 188.750 215.736 190.411 215.791 M150.465 217.957 C 151.041 217.990,151.941 217.989,152.465 217.956 C 152.988 217.923,152.517 217.897,151.417 217.897 C 150.317 217.897,149.888 217.924,150.465 217.957 M201.778 218.944 C 201.535 219.187,201.667 220.460,201.958 220.688 C 202.222 220.895,202.228 220.889,202.025 220.629 C 201.885 220.452,201.822 220.052,201.859 219.587 C 201.892 219.173,201.912 218.833,201.904 218.833 C 201.896 218.833,201.839 218.883,201.778 218.944 M253.621 219.954 C 253.917 219.990,254.442 219.991,254.788 219.955 C 255.134 219.919,254.892 219.889,254.250 219.888 C 253.608 219.887,253.325 219.917,253.621 219.954 M150.465 222.124 C 151.041 222.156,151.941 222.156,152.465 222.123 C 152.988 222.090,152.517 222.063,151.417 222.064 C 150.317 222.064,149.888 222.091,150.465 222.124 M208.000 230.216 L 208.083 235.417 208.127 230.344 C 208.152 227.554,208.114 225.214,208.044 225.144 C 207.974 225.074,207.954 227.356,208.000 230.216 M197.193 226.722 C 196.833 227.105,196.829 227.173,196.875 231.764 L 196.922 236.417 196.961 231.761 C 196.999 227.237,197.010 227.094,197.362 226.719 C 197.562 226.507,197.687 226.333,197.641 226.333 C 197.596 226.333,197.394 226.508,197.193 226.722 M225.887 228.500 C 225.887 229.096,225.917 229.340,225.954 229.042 C 225.991 228.744,225.991 228.256,225.954 227.958 C 225.917 227.660,225.887 227.904,225.887 228.500 M231.247 230.124 L 235.994 230.172 236.043 234.544 L 236.092 238.917 236.088 234.500 L 236.083 230.083 231.292 230.079 L 226.500 230.076 231.247 230.124 M240.788 230.120 C 241.084 230.157,241.609 230.158,241.955 230.122 C 242.300 230.086,242.058 230.055,241.417 230.055 C 240.775 230.054,240.492 230.083,240.788 230.120 M189.797 235.456 C 190.282 235.490,191.032 235.490,191.464 235.456 C 191.896 235.421,191.500 235.394,190.583 235.394 C 189.667 235.395,189.313 235.423,189.797 235.456 M251.875 235.456 C 252.402 235.490,253.265 235.490,253.792 235.456 C 254.319 235.423,253.887 235.396,252.833 235.396 C 251.779 235.396,251.348 235.423,251.875 235.456 M192.726 237.417 C 192.725 238.242,192.754 238.600,192.788 238.213 C 192.823 237.827,192.824 237.152,192.789 236.713 C 192.755 236.275,192.726 236.592,192.726 237.417 M168.314 247.881 C 168.386 247.953,169.264 247.990,170.264 247.963 L 172.083 247.915 170.133 247.832 C 169.060 247.787,168.241 247.809,168.314 247.881 M223.292 251.451 C 223.498 251.491,223.835 251.491,224.042 251.451 C 224.248 251.411,224.079 251.379,223.667 251.379 C 223.254 251.379,223.085 251.411,223.292 251.451 M174.333 253.656 C 174.333 253.802,174.130 253.849,173.681 253.806 C 173.322 253.772,173.064 253.801,173.107 253.872 C 173.227 254.066,174.298 254.025,174.424 253.822 C 174.484 253.724,174.488 253.599,174.433 253.544 C 174.378 253.489,174.333 253.540,174.333 253.656 M141.500 256.250 C 141.500 257.060,141.548 257.674,141.608 257.614 C 141.725 257.497,141.694 254.972,141.574 254.851 C 141.533 254.811,141.500 255.440,141.500 256.250 M272.039 255.333 C 272.039 255.654,272.073 255.785,272.115 255.625 C 272.157 255.465,272.157 255.202,272.115 255.042 C 272.073 254.881,272.039 255.012,272.039 255.333 M140.199 258.115 C 140.181 259.874,140.223 261.349,140.292 261.391 C 140.360 261.434,140.397 260.482,140.373 259.276 C 140.295 255.289,140.232 254.873,140.199 258.115 M157.816 257.050 C 157.894 257.127,158.211 257.165,158.520 257.133 C 159.069 257.076,159.066 257.073,158.379 256.992 C 157.992 256.946,157.739 256.972,157.816 257.050 M233.167 257.000 L 232.583 257.123 233.115 257.145 C 233.408 257.157,233.693 257.092,233.750 257.000 C 233.807 256.908,233.830 256.843,233.802 256.855 C 233.773 256.867,233.487 256.932,233.167 257.000 M161.877 257.120 C 162.131 257.158,162.506 257.157,162.711 257.117 C 162.916 257.078,162.708 257.046,162.250 257.048 C 161.792 257.049,161.624 257.081,161.877 257.120 M244.708 257.121 C 245.052 257.157,245.615 257.157,245.958 257.121 C 246.302 257.085,246.021 257.056,245.333 257.056 C 244.646 257.056,244.365 257.085,244.708 257.121 M269.292 257.118 C 269.498 257.157,269.835 257.157,270.042 257.118 C 270.248 257.078,270.079 257.045,269.667 257.045 C 269.254 257.045,269.085 257.078,269.292 257.118 M146.917 260.167 L 146.083 260.281 146.865 260.307 C 147.295 260.322,147.693 260.258,147.750 260.167 C 147.807 260.075,147.830 260.012,147.802 260.026 C 147.773 260.041,147.375 260.104,146.917 260.167 M152.309 260.209 C 152.393 260.293,152.639 260.334,152.856 260.300 C 153.189 260.247,153.166 260.224,152.703 260.147 C 152.372 260.092,152.216 260.116,152.309 260.209 M160.986 260.219 C 161.061 260.294,161.414 260.331,161.770 260.300 L 162.417 260.243 161.633 260.163 C 161.202 260.118,160.910 260.144,160.986 260.219 M177.000 260.167 L 176.250 260.283 176.948 260.308 C 177.333 260.322,177.693 260.258,177.750 260.167 C 177.807 260.075,177.830 260.011,177.802 260.025 C 177.773 260.039,177.412 260.103,177.000 260.167 M198.333 260.167 L 197.583 260.283 198.282 260.308 C 198.666 260.322,199.027 260.258,199.083 260.167 C 199.140 260.075,199.163 260.011,199.135 260.025 C 199.107 260.039,198.746 260.103,198.333 260.167 M223.372 260.500 C 223.372 260.821,223.406 260.952,223.448 260.792 C 223.490 260.631,223.490 260.369,223.448 260.208 C 223.406 260.048,223.372 260.179,223.372 260.500 M225.667 260.167 L 224.917 260.283 225.615 260.308 C 225.999 260.322,226.360 260.258,226.417 260.167 C 226.473 260.075,226.496 260.011,226.468 260.025 C 226.440 260.039,226.079 260.103,225.667 260.167 M261.205 260.500 C 261.205 260.821,261.240 260.952,261.282 260.792 C 261.323 260.631,261.323 260.369,261.282 260.208 C 261.240 260.048,261.205 260.179,261.205 260.500 M269.083 260.167 L 268.250 260.281 269.032 260.307 C 269.462 260.322,269.860 260.258,269.917 260.167 C 269.973 260.075,269.996 260.012,269.968 260.026 C 269.940 260.041,269.542 260.104,269.083 260.167 M191.000 260.231 C 191.000 260.267,191.221 260.328,191.491 260.368 C 191.761 260.407,191.944 260.378,191.898 260.303 C 191.815 260.170,191.000 260.104,191.000 260.231 M250.500 260.231 C 250.500 260.267,250.721 260.328,250.991 260.368 C 251.261 260.407,251.444 260.378,251.398 260.303 C 251.315 260.170,250.500 260.104,250.500 260.231 M257.627 260.285 C 257.834 260.324,258.134 260.323,258.294 260.281 C 258.453 260.239,258.283 260.207,257.917 260.209 C 257.550 260.211,257.420 260.245,257.627 260.285 M258.583 264.000 L 257.917 264.119 258.532 264.143 C 258.870 264.156,259.193 264.092,259.250 264.000 C 259.307 263.908,259.330 263.844,259.302 263.857 C 259.273 263.870,258.950 263.934,258.583 264.000 " stroke="none" fill="#60625f" fill-rule="evenodd"></path><path id="path4" d="M182.425 108.154 C 182.372 108.238,182.259 108.670,182.173 109.112 C 182.087 109.555,181.594 111.942,181.078 114.417 C 180.562 116.892,180.098 119.198,180.048 119.542 L 179.956 120.167 191.703 120.167 L 203.450 120.167 204.100 120.650 C 204.457 120.916,209.587 125.978,215.500 131.900 L 226.249 142.667 227.667 142.667 L 229.086 142.667 233.501 138.247 L 237.917 133.826 236.083 132.035 C 235.075 131.050,230.050 126.116,224.917 121.072 C 219.783 116.028,214.683 111.025,213.583 109.955 L 211.583 108.009 197.052 108.005 C 188.350 108.002,182.482 108.062,182.425 108.154 M211.833 132.583 C 217.012 137.762,221.286 142.000,221.332 142.000 C 221.378 142.000,217.179 137.762,212.000 132.583 C 206.821 127.404,202.547 123.167,202.501 123.167 C 202.455 123.167,206.655 127.404,211.833 132.583 " stroke="none" fill="#3d7292" fill-rule="evenodd"></path></g></svg>